<?xml version="1.0" encoding="UTF-8"?><svg id="Layer_2" xmlns="http://www.w3.org/2000/svg" viewBox="0 0 130.27 158.35"><defs><style>.cls-1{fill:#ff8;}.cls-2{fill:#ffb05a;}.cls-3{fill:#f4ba53;}.cls-4{fill:#b7a99a;}.cls-5{fill:#fff7a9;}.cls-6{fill:#ccaa8b;}.cls-7{fill:#d3793c;}.cls-8{fill:#f7ba57;}</style></defs><g id="_4"><polygon class="cls-6" points=".06 13.97 21.28 0 130.27 0 109.05 13.97 .06 13.97"/><rect class="cls-5" x=".06" y="13.97" width="109.23" height="144.05"/><polygon class="cls-8" points="109.29 158.02 130.27 137.03 130.27 0 109.29 13.97 109.29 158.02"/><path class="cls-7" d="M22.62,44.85c-.22,1.02-.47,2.12-.75,3.31-.28,1.19-.62,2.36-1.03,3.52-.4,1.16-.88,2.24-1.43,3.26-.55,1.02-1.19,1.86-1.94,2.53-.41.36-.83.64-1.27.82s-.89.3-1.34.34c-1.1.09-2-.14-2.69-.69-.69-.55-1.07-1.29-1.15-2.22-.03-.32,0-.66.08-1,.08-.34.23-.66.44-.94.61.23,1.21.32,1.82.27.78-.07,1.46-.45,2.04-1.17.58-.71,1.09-1.57,1.51-2.58.43-1,.79-2.05,1.09-3.15.3-1.09.57-2.05.8-2.88.33-1.25.64-2.48.91-3.7.28-1.22.58-2.45.91-3.7-1.13.55-1.98,1.29-2.56,2.21-.58.92-.82,1.87-.74,2.84.05.58.23,1.16.54,1.72-.46.76-1.08,1.17-1.86,1.23s-1.45-.13-2.01-.6c-.56-.46-.87-1.06-.93-1.8-.08-.99.1-1.92.55-2.77.45-.85,1.08-1.6,1.89-2.23.81-.63,1.76-1.15,2.86-1.56,1.1-.41,2.26-.66,3.5-.77,1.15-.1,2.19-.05,3.13.15.94.19,1.76.5,2.44.91.69.41,1.24.9,1.64,1.48.41.58.64,1.19.69,1.84.06.69-.05,1.37-.34,2.04-.28.67-.69,1.27-1.24,1.82-.18.19-.41.32-.68.4-.28.08-.55.18-.82.31,1.14.58,2,1.21,2.58,1.89.58.68.91,1.51.99,2.48.15,1.73-.17,3.24-.96,4.52-.78,1.29-1.87,2.24-3.26,2.85-.42.17-.82.26-1.18.3-.39.03-.8,0-1.23-.11-.43-.1-.83-.28-1.19-.52-.36-.24-.66-.54-.91-.9-.25-.36-.39-.77-.43-1.22-.02-.19,0-.41.04-.64s.11-.46.21-.67.2-.39.31-.53.25-.22.41-.23c.28-.02.6.04.95.18.35.15.7.2,1.04.17.39-.03.73-.18,1.03-.43.29-.25.53-.56.71-.92.18-.36.31-.75.39-1.16.09-.41.11-.79.08-1.13-.06-.71-.2-1.26-.43-1.65-.23-.38-.51-.67-.86-.86-.34-.19-.72-.32-1.13-.4-.41-.07-.82-.16-1.25-.25ZM22.72,43.63l.29-.02c1.12-.09,2-.53,2.63-1.3s.9-1.71.81-2.81c-.02-.26-.09-.56-.19-.9-.1-.34-.25-.65-.42-.94-.18-.29-.39-.53-.65-.71-.26-.19-.54-.26-.87-.24l-.26.02c-.09,0-.17.04-.25.09-.19,1.13-.37,2.25-.53,3.36-.17,1.11-.35,2.27-.56,3.46Z"/><path class="cls-7" d="M43.67,50.43c0,.52-.09,1.05-.28,1.57-.18.53-.44,1.01-.76,1.45s-.69.8-1.1,1.09c-.41.28-.82.44-1.23.48-.74.06-1.33-.14-1.8-.6-.46-.46-.75-1.08-.86-1.86l-.2.34c-.51.67-1,1.24-1.47,1.69-.47.45-1.09.71-1.85.78-.63.05-1.15-.01-1.57-.2-.42-.18-.76-.45-1.03-.8s-.47-.76-.59-1.22c-.13-.47-.21-.96-.25-1.48-.07-.8,0-1.69.18-2.68.19-.98.51-1.92.96-2.79.45-.88,1.04-1.62,1.77-2.24s1.61-.97,2.62-1.05c.91-.08,1.57.06,1.99.4s.73.87.92,1.57l.72-1.99,4.25-.36-.57,1.42c-.35.97-.7,1.93-1.05,2.88s-.61,1.9-.79,2.83c0,.02,0,.04-.01.07,0,.02-.01.04-.01.07l.03.32c0,.24,0,.44.03.6.02.16.12.26.3.28l1.65-.6ZM35.47,52c.41-.25.79-.6,1.12-1.06s.61-.94.82-1.46c.22-.52.37-1.05.47-1.61.1-.55.12-1.08.08-1.57,0-.09-.03-.21-.06-.37-.04-.16-.08-.31-.14-.46-.06-.15-.13-.27-.23-.37-.1-.1-.22-.14-.37-.13-.28.02-.55.27-.82.74-.27.47-.5,1-.7,1.59-.2.59-.36,1.17-.48,1.74-.12.56-.16.96-.15,1.17l.03.32c0,.18,0,.36.03.57s.11.42.23.65h-.03s.18.25.18.25Z"/><path class="cls-7" d="M56.78,48.71c.03.11.06.22.08.35s.04.26.05.39c.04.52-.04,1.03-.25,1.52-.21.5-.5.95-.87,1.36-.37.41-.79.75-1.27,1.02-.48.27-.97.42-1.46.47-.43.04-.82-.02-1.17-.18-.35-.15-.65-.37-.9-.64s-.45-.58-.6-.93c-.15-.35-.24-.69-.27-1.04-.05-.54-.01-1.06.1-1.56.11-.5.24-.98.4-1.46l.33-1.14c.08-.35.14-.7.19-1.03s.11-.68.19-1.06l-.21-.18c-.5.32-.93.72-1.29,1.19-.36.47-.67.98-.92,1.53s-.46,1.13-.64,1.72c-.18.59-.32,1.17-.43,1.72l-.79,3.43-4.8.4,3.79-12.5,4.22-.35-.84,2.06s.08-.06.11-.11.06-.08.11-.11h-.03c.48-.47.99-.91,1.51-1.3.52-.39,1.15-.62,1.89-.68s1.32.11,1.74.51c.43.4.67.98.73,1.74.04.5-.01,1.04-.16,1.61-.15.58-.29,1.16-.44,1.74l-.18.64c-.03.13-.06.27-.1.4s-.04.24-.04.33c.02.24.08.49.19.75s.24.39.39.38c.26-.02.49-.13.71-.34s.45-.43.71-.7l.23.05Z"/><path class="cls-7" d="M69.65,48.25c0,.52-.09,1.05-.28,1.57-.18.53-.44,1.01-.76,1.45s-.69.8-1.1,1.09c-.41.28-.82.44-1.23.48-.74.06-1.33-.14-1.8-.6-.46-.46-.75-1.08-.86-1.86l-.2.34c-.51.67-1,1.24-1.47,1.69-.47.45-1.09.71-1.85.78-.63.05-1.15-.01-1.57-.2-.42-.18-.76-.45-1.03-.8s-.47-.76-.59-1.22c-.13-.47-.21-.96-.25-1.48-.07-.8,0-1.69.18-2.68.19-.98.51-1.92.96-2.79.45-.88,1.04-1.62,1.77-2.24s1.61-.97,2.62-1.05c.91-.08,1.57.06,1.99.4s.73.87.92,1.57l.72-1.99,4.25-.36-.57,1.42c-.35.97-.7,1.93-1.05,2.88s-.61,1.9-.79,2.83c0,.02,0,.04-.01.07,0,.02-.01.04-.01.07l.03.32c0,.24,0,.44.03.6.02.16.12.26.3.28l1.65-.6ZM61.45,49.82c.41-.25.79-.6,1.12-1.06s.61-.94.82-1.46c.22-.52.37-1.05.47-1.61.1-.55.12-1.08.08-1.57,0-.09-.03-.21-.06-.37-.04-.16-.08-.31-.14-.46-.06-.15-.13-.27-.23-.37-.1-.1-.22-.14-.37-.13-.28.02-.55.27-.82.74-.27.47-.5,1-.7,1.59-.2.59-.36,1.17-.48,1.74-.12.56-.16.96-.15,1.17l.03.32c0,.18,0,.36.03.57s.11.42.23.65h-.03s.18.25.18.25Z"/><path class="cls-7" d="M82.76,46.53c.03.11.06.22.08.35s.04.26.05.39c.04.52-.04,1.03-.25,1.52-.21.5-.5.95-.87,1.36-.37.41-.79.75-1.27,1.02-.48.27-.97.42-1.46.47-.43.04-.82-.02-1.17-.18-.35-.15-.65-.37-.9-.64s-.45-.58-.6-.93c-.15-.35-.24-.69-.27-1.04-.05-.54-.01-1.06.1-1.56.11-.5.24-.98.4-1.46l.33-1.14c.08-.35.14-.7.19-1.03s.11-.68.19-1.06l-.21-.18c-.5.32-.93.72-1.29,1.19-.36.47-.67.98-.92,1.53s-.46,1.13-.64,1.72c-.18.59-.32,1.17-.43,1.72l-.79,3.43-4.8.4,3.79-12.5,4.22-.35-.84,2.06s.08-.06.11-.11.06-.08.11-.11h-.03c.48-.47.99-.91,1.51-1.3.52-.39,1.15-.62,1.89-.68s1.32.11,1.74.51c.43.4.67.98.73,1.74.04.5-.01,1.04-.16,1.61-.15.58-.29,1.16-.44,1.74l-.18.64c-.03.13-.06.27-.1.4s-.04.24-.04.33c.02.24.08.49.19.75s.24.39.39.38c.26-.02.49-.13.71-.34s.45-.43.71-.7l.23.05Z"/><path class="cls-7" d="M95.62,46.08c0,.52-.09,1.05-.28,1.57-.18.53-.44,1.01-.76,1.45s-.69.8-1.1,1.09c-.41.28-.82.44-1.23.48-.74.06-1.33-.14-1.8-.6-.46-.46-.75-1.08-.86-1.86l-.2.34c-.51.67-1,1.24-1.47,1.69-.47.45-1.09.71-1.85.78-.63.05-1.15-.01-1.57-.2-.42-.18-.76-.45-1.03-.8s-.47-.76-.59-1.22c-.13-.47-.21-.96-.25-1.48-.07-.8,0-1.69.18-2.68.19-.98.51-1.92.96-2.79.45-.88,1.04-1.62,1.77-2.24s1.61-.97,2.62-1.05c.91-.08,1.57.06,1.99.4s.73.87.92,1.57l.72-1.99,4.25-.36-.57,1.42c-.35.97-.7,1.93-1.05,2.88s-.61,1.9-.79,2.83c0,.02,0,.04-.01.07,0,.02-.01.04-.01.07l.03.32c0,.24,0,.44.03.6.02.16.12.26.3.28l1.65-.6ZM87.43,47.65c.41-.25.79-.6,1.12-1.06s.61-.94.82-1.46c.22-.52.37-1.05.47-1.61.1-.55.12-1.08.08-1.57,0-.09-.03-.21-.06-.37-.04-.16-.08-.31-.14-.46-.06-.15-.13-.27-.23-.37-.1-.1-.22-.14-.37-.13-.28.02-.55.27-.82.74-.27.47-.5,1-.7,1.59-.2.59-.36,1.17-.48,1.74-.12.56-.16.96-.15,1.17l.03.32c0,.18,0,.36.03.57s.11.42.23.65h-.03s.18.25.18.25Z"/><path class="cls-7" d="M36.62,74.64l.02.23c.03.35-.04.67-.21.98s-.4.58-.7.83c-.3.24-.63.44-1,.59-.37.15-.74.24-1.1.27-.63.05-1.18-.03-1.67-.24-.49-.21-.9-.5-1.23-.88-.34-.37-.6-.8-.78-1.29-.18-.49-.3-.99-.34-1.51-.09-1.04.1-1.95.57-2.73.47-.78,1.08-1.44,1.84-1.98.76-.54,1.61-.96,2.56-1.26.94-.3,1.84-.48,2.68-.55.8-.07,1.6-.1,2.41-.09.81,0,1.61.03,2.41.06.8.03,1.59.05,2.37.06.78.01,1.58-.02,2.38-.08.58-.05,1.15-.17,1.69-.35.54-.19,1.05-.47,1.54-.86.08-.07.19-.13.31-.17s.26-.07.39-.08c.24-.02.4.05.47.21s.13.35.15.59c0,.04,0,.1,0,.16,0,.07,0,.12,0,.16-.14.4-.23.74-.28,1s-.12.49-.24.67c-.12.18-.29.35-.53.5s-.6.31-1.09.48c-.34.12-.72.13-1.16.03s-.89-.18-1.38-.26c-.49-.08-.98-.09-1.47-.04-.5.05-.97.28-1.41.69-.28,1.13-.54,2.23-.8,3.28-.26,1.06-.53,2.15-.8,3.28l4.64-.39c-.28.55-.53,1.05-.76,1.5s-.46.91-.7,1.37c-.59-.06-1.17-.12-1.73-.18-.56-.06-1.13-.12-1.7-.18-.16.65-.35,1.38-.57,2.2-.21.82-.48,1.67-.78,2.53-.31.86-.67,1.71-1.08,2.54s-.88,1.58-1.4,2.24c-.52.66-1.11,1.21-1.76,1.65-.65.44-1.37.69-2.17.75-.54.05-1.05.03-1.52-.05-.48-.08-.89-.24-1.25-.47-.36-.23-.65-.55-.88-.95-.23-.41-.37-.92-.42-1.55-.07-.82.18-1.56.76-2.22.43-.04.85,0,1.25.09s.78.13,1.15.1c.78-.07,1.47-.48,2.08-1.24s1.15-1.66,1.62-2.72.88-2.15,1.24-3.31c.36-1.15.68-2.16.95-3.04.19-.58.39-1.18.59-1.78.2-.6.43-1.19.69-1.76.2-.45.45-.88.76-1.27.3-.4.59-.79.86-1.18-.29-.13-.64-.21-1.03-.24s-.81-.03-1.24,0c-.78.07-1.5.21-2.15.43-.66.22-1.22.49-1.7.81-.47.32-.84.69-1.1,1.1s-.37.86-.33,1.33c.04.43.23.84.58,1.21.35.37.85.69,1.5.94Z"/><path class="cls-7" d="M50.74,83.77l1.61-1.08.03.39s.01.08.02.1c.01.02.02.04.02.06.04.45-.04.93-.24,1.42-.2.5-.46.96-.78,1.39-.32.43-.7.79-1.13,1.09s-.85.46-1.26.5c-.35.03-.68-.01-1.01-.13-.33-.11-.62-.29-.89-.51-.27-.23-.49-.49-.65-.79-.17-.3-.27-.63-.29-.97-.06-.73-.06-1.51.02-2.32.07-.81.2-1.58.38-2.32.28-1.13.6-2.38.96-3.74.36-1.36.72-2.61,1.06-3.75l.9-3.34,4.64-.39c-.45,1.13-.85,2.22-1.21,3.29-.36,1.06-.69,2.11-1.01,3.14-.32,1.03-.62,2.04-.9,3.05s-.56,2.02-.82,3.04c-.05.18-.07.33-.06.46,0,.09,0,.16,0,.23s0,.13,0,.2c0,.18,0,.33.02.47s.08.27.18.39l.44.13Z"/><path class="cls-7" d="M58.54,74.33l-.23.77c-.36,1.14-.71,2.25-1.04,3.34s-.6,2.15-.79,3.19v.1c.03.26.07.51.14.74.06.23.17.38.33.43.45-.39.83-.83,1.16-1.32.33-.5.61-1.02.83-1.57.23-.55.42-1.11.58-1.68s.31-1.13.46-1.69c.12-.42.22-.84.32-1.25.1-.41.22-.81.36-1.19l4.48-.38c-.1.42-.24.89-.42,1.41s-.34.96-.46,1.34c-.31.74-.58,1.52-.82,2.32-.24.8-.32,1.62-.25,2.44.02.19.04.38.06.57.03.18.07.38.13.59l1.71-.99c.05.13.09.24.09.34l.02.28c.04.45-.04.92-.23,1.41s-.45.93-.79,1.32c-.34.4-.72.73-1.16.99s-.88.42-1.33.46c-.82.07-1.45-.12-1.88-.58-.43-.45-.68-1.05-.74-1.78l-.02-.29c0-.09,0-.18,0-.29l-.17.28c-.29.48-.55.91-.79,1.28-.24.37-.51.69-.8.96-.29.28-.62.49-.97.65-.36.16-.79.26-1.31.31-.69.06-1.3-.18-1.83-.73-.52-.54-.82-1.24-.89-2.08-.05-1.17.09-2.41.42-3.71.34-1.3.71-2.54,1.11-3.7.1-.31.21-.64.33-.97.11-.34.21-.65.3-.94l4.09-.34Z"/><path class="cls-7" d="M67.44,74.18l.28-.91v.03s.23-.8.23-.8c.18-.67.39-1.33.62-2,.23-.66.52-1.26.88-1.8.36-.54.8-1,1.32-1.37s1.18-.59,1.95-.65c.13-.01.36-.01.7-.01.34,0,.69.05,1.06.12.37.08.69.2.98.38.29.17.44.42.47.74.05.54-.05,1.03-.29,1.46-.24.43-.55.85-.96,1.26-.31-.08-.57-.15-.77-.2s-.39-.07-.56-.05c-.41.03-.69.23-.85.58-.16.35-.32.84-.48,1.46l-.15.54-.26.84c.5-.04,1.02-.08,1.56-.11.54-.03,1.06-.07,1.56-.11l-.94,2.82-3.02.22c-.27.96-.52,1.91-.76,2.86-.24.95-.48,1.89-.73,2.82-.15.56-.29,1.13-.43,1.72-.14.59-.29,1.17-.46,1.75l-4.18.35,1.32-4.91,1.77-6.55.12-.47Z"/><path class="cls-7" d="M76.1,73.45l.28-.91v.03s.23-.8.23-.8c.18-.67.39-1.33.62-2,.23-.66.52-1.26.88-1.8.36-.54.8-1,1.32-1.37s1.18-.59,1.95-.65c.13-.01.36-.01.7-.01.34,0,.69.05,1.06.12.37.08.69.2.98.38.29.17.44.42.47.74.05.54-.05,1.03-.29,1.46-.24.43-.55.85-.96,1.26-.31-.08-.57-.15-.77-.2s-.39-.07-.56-.05c-.41.03-.69.23-.85.58-.16.35-.32.84-.48,1.46l-.15.54-.26.84c.5-.04,1.02-.08,1.56-.11.54-.03,1.06-.07,1.56-.11l-.94,2.82-3.02.22c-.27.96-.52,1.91-.76,2.86-.24.95-.48,1.89-.73,2.82-.15.56-.29,1.13-.43,1.72-.14.59-.29,1.17-.46,1.75l-4.18.35,1.32-4.91,1.77-6.55.12-.47Z"/><rect class="cls-3" x="27.56" y="101.93" width="5.47" height="56.42"/><rect class="cls-3" x="49.43" y="101.93" width="5.47" height="56.42"/><rect class="cls-3" x="38.5" y="101.93" width="5.47" height="56.42"/><rect class="cls-3" x="5.7" y="101.93" width="5.47" height="56.42"/><rect class="cls-3" x="16.63" y="101.93" width="5.47" height="56.42"/><rect class="cls-3" x="93.15" y="101.93" width="5.47" height="56.42"/><rect class="cls-3" x="104.08" y="101.93" width="5.27" height="56.42"/><rect class="cls-3" x="82.22" y="101.93" width="5.47" height="56.42"/><rect class="cls-3" x="71.29" y="101.93" width="5.47" height="56.42"/><rect class="cls-3" x="60.36" y="101.93" width="5.47" height="56.42"/><rect class="cls-1" x="22.1" y="101.93" width="5.47" height="56.42"/><rect class="cls-1" x="33.03" y="101.93" width="5.47" height="56.42"/><rect class="cls-1" x="43.96" y="101.93" width="5.47" height="56.42"/><rect class="cls-1" y="101.93" width="5.7" height="56.42"/><rect class="cls-1" x="11.17" y="101.93" width="5.47" height="56.42"/><rect class="cls-1" x="98.61" y="101.93" width="5.47" height="56.42"/><rect class="cls-1" x="87.68" y="101.93" width="5.47" height="56.42"/><rect class="cls-1" x="65.82" y="101.93" width="5.47" height="56.42"/><rect class="cls-1" x="76.75" y="101.93" width="5.47" height="56.42"/><rect class="cls-1" x="54.89" y="101.93" width="5.47" height="56.42"/><path class="cls-2" d="M109.29,97.06H.06v2.21H.06v9.02c1.76,0,3.27-1.02,4.01-2.49.74,1.47,2.25,2.49,4.01,2.49s3.31-1.04,4.04-2.54c.73,1.5,2.26,2.54,4.04,2.54s3.31-1.04,4.04-2.54c.73,1.5,2.26,2.54,4.04,2.54s3.31-1.04,4.04-2.54c.73,1.5,2.26,2.54,4.04,2.54s3.31-1.04,4.04-2.54c.73,1.5,2.26,2.54,4.04,2.54s3.31-1.04,4.04-2.54c.73,1.5,2.26,2.54,4.04,2.54s3.31-1.04,4.04-2.54c.73,1.5,2.26,2.54,4.04,2.54s3.31-1.04,4.04-2.54c.73,1.5,2.26,2.54,4.04,2.54s3.31-1.04,4.04-2.54c.73,1.5,2.26,2.54,4.04,2.54s3.31-1.04,4.04-2.54c.73,1.5,2.26,2.54,4.04,2.54s3.31-1.04,4.04-2.54c.73,1.5,2.26,2.54,4.04,2.54s3.31-1.04,4.04-2.54c.73,1.5,2.26,2.54,4.04,2.54,1.21,0,2.3-.48,3.11-1.25.82.89,1.99,1.46,3.31,1.46,1.06,0,2.02-.38,2.79-.99.81.8,1.93,1.3,3.16,1.3v-4.77h0v-6.98Z"/><path class="cls-2" d="M109.29,13.51H.06v2.21H.06v9.02c1.76,0,3.27-1.02,4.01-2.49.74,1.47,2.25,2.49,4.01,2.49s3.31-1.04,4.04-2.54c.73,1.5,2.26,2.54,4.04,2.54s3.31-1.04,4.04-2.54c.73,1.5,2.26,2.54,4.04,2.54s3.31-1.04,4.04-2.54c.73,1.5,2.26,2.54,4.04,2.54s3.31-1.04,4.04-2.54c.73,1.5,2.26,2.54,4.04,2.54s3.31-1.04,4.04-2.54c.73,1.5,2.26,2.54,4.04,2.54s3.31-1.04,4.04-2.54c.73,1.5,2.26,2.54,4.04,2.54s3.31-1.04,4.04-2.54c.73,1.5,2.26,2.54,4.04,2.54s3.31-1.04,4.04-2.54c.73,1.5,2.26,2.54,4.04,2.54s3.31-1.04,4.04-2.54c.73,1.5,2.26,2.54,4.04,2.54s3.31-1.04,4.04-2.54c.73,1.5,2.26,2.54,4.04,2.54s3.31-1.04,4.04-2.54c.73,1.5,2.26,2.54,4.04,2.54,1.21,0,2.3-.48,3.11-1.25.82.89,1.99,1.46,3.31,1.46,1.06,0,2.02-.38,2.79-.99.81.8,1.93,1.3,3.16,1.3v-4.77h0v-6.98Z"/><polygon class="cls-4" points="112.38 94.53 112.38 143.56 127.18 128.77 127.18 85.82 112.38 94.53"/></g></svg>