<?xml version="1.0" encoding="UTF-8"?><svg xmlns="http://www.w3.org/2000/svg" xmlns:xlink="http://www.w3.org/1999/xlink" viewBox="0 0 141.5 148.09"><defs><style>.cls-1{fill:url(#radial-gradient-10);}.cls-2{fill:#2441aa;}.cls-3{fill:#bc3572;}.cls-4{fill:url(#radial-gradient-9);}.cls-5{fill:#21c4e4;}.cls-6{fill:#a5ce07;}.cls-7{fill:#e40005;}.cls-8{fill:none;}.cls-9{fill:#f1557a;}.cls-10{fill:url(#radial-gradient-5);}.cls-11{fill:#6a2dc9;}.cls-12{fill:url(#radial-gradient);}.cls-13{fill:url(#radial-gradient-3);}.cls-14{clip-path:url(#clippath-1);}.cls-15{isolation:isolate;}.cls-16{fill:url(#radial-gradient-11);}.cls-17{fill:url(#radial-gradient-8);}.cls-18{fill:url(#radial-gradient-2);}.cls-19{fill:#145cc6;}.cls-20{fill:#f7acba;}.cls-21{fill:url(#radial-gradient-4);}.cls-22{fill:#ff6f27;}.cls-23{fill:#076d55;}.cls-24{fill:#1a1ac1;}.cls-25{mix-blend-mode:hue;}.cls-26{fill:url(#radial-gradient-6);}.cls-27{fill:#f45608;}.cls-28{fill:url(#radial-gradient-7);}.cls-29{clip-path:url(#clippath);}</style><clipPath id="clippath"><path class="cls-8" d="M52.24,18.27s-14.44,4.81-25.31,31.37-6.59,45.62-4.99,54.89,5.88,11.41,10.51,11.58,7.13-1.43,7.31,2.32-2.14,7.31.36,13.9,7.31,4.99,11.05,3.03c3.74-1.96,5.17-8.38,8.73-6.95s6.59,8.42,12.65,8.67,28.51-1.89,39.21-18.29c10.69-16.4,6.77-18.18,3.74-26.55s-9.98-13.19-5.35-21.03c4.63-7.84,12.83-10.16,14.79-12.83s3.92-5.35-4.1-18.71c-8.02-13.37-.71-16.04-21.74-22.63-21.03-6.59-32.44-6.59-46.87,1.25Z"/></clipPath><clipPath id="clippath-1"><path class="cls-8" d="M32.03,47.34s9.03-5.29,18.42-2.91,14.97,5.82,18.89,8.55,12.71,7.37,19.25,7.49,11.05-1.19,19.37-4.4c8.32-3.21,12.48-4.16,16.63-1.31s8.2,6.53,6.65,15.45-6.3,20.55-18.18,26.38-30.77,13.19-53.23,5.82c-22.46-7.37-23.76-7.6-35.41-24.59,0,0-12-20.43,7.6-30.47Z"/></clipPath><radialGradient id="radial-gradient" cx="93.95" cy="80.9" fx="93.95" fy="80.9" r="9.42" gradientTransform="translate(-67.79 -34.73) scale(1.16 1.13)" gradientUnits="userSpaceOnUse"><stop offset="0" stop-color="#ff0018"/><stop offset=".43" stop-color="#ff0c72" stop-opacity=".95"/><stop offset="1" stop-color="#fff" stop-opacity="0"/></radialGradient><radialGradient id="radial-gradient-2" cx="88.81" cy="103.58" fx="88.81" fy="103.58" r="9.42" xlink:href="#radial-gradient"/><radialGradient id="radial-gradient-3" cx="120.46" cy="101.71" fx="120.46" fy="101.71" r="9.42" xlink:href="#radial-gradient"/><radialGradient id="radial-gradient-4" cx="151.54" cy="90.45" fx="151.54" fy="90.45" xlink:href="#radial-gradient"/><radialGradient id="radial-gradient-5" cx="147.03" cy="115.66" fx="147.03" fy="115.66" r="9.42" xlink:href="#radial-gradient"/><radialGradient id="radial-gradient-6" cx="111.18" cy="84.2" fx="111.18" fy="84.2" r="6.17" xlink:href="#radial-gradient"/><radialGradient id="radial-gradient-7" cx="105.1" cy="109.84" fx="105.1" fy="109.84" r="6.17" xlink:href="#radial-gradient"/><radialGradient id="radial-gradient-8" cx="139.37" cy="101.71" fx="139.37" fy="101.71" r="6.17" xlink:href="#radial-gradient"/><radialGradient id="radial-gradient-9" cx="160.91" cy="103.58" fx="160.91" fy="103.58" r="6.17" xlink:href="#radial-gradient"/><radialGradient id="radial-gradient-10" cx="125.42" cy="119.22" fx="125.42" fy="119.22" r="6.17" xlink:href="#radial-gradient"/><radialGradient id="radial-gradient-11" cx="131.49" cy="87.15" fx="131.49" fy="87.15" r="6.17" xlink:href="#radial-gradient"/></defs><g class="cls-15"><g id="Layer_2"><g id="Layer_2-2"><path class="cls-7" d="M52.24,18.27s-14.44,4.81-25.31,31.37-6.59,45.62-4.99,54.89,5.88,11.41,10.51,11.58,7.13-1.43,7.31,2.32-2.14,7.31.36,13.9,7.31,4.99,11.05,3.03,5.17-8.38,8.73-6.95,6.59,8.42,12.65,8.67,28.51-1.89,39.21-18.29,6.77-18.18,3.74-26.55-9.98-13.19-5.35-21.03,12.83-10.16,14.79-12.83,3.92-5.35-4.1-18.71-.71-16.04-21.74-22.63-32.44-6.59-46.87,1.25Z"/><path class="cls-2" d="M52.3,18.41c-17.08,7.85-26.59,32.5-29.81,49.94-1.89,10.58-1.77,21.4.04,31.98.69,3.89,1.04,8.05,3.24,11.31,2.62,4.04,7.54,3.54,11.85,3.37,2.54,0,3.17,2.21,2.98,4.31-.16,2.23-.77,4.17-.89,6.16-.28,5.7,2.16,13.64,9.44,10.29,1.95-.73,3.47-1.84,4.68-3.54,1.38-1.62,2.29-3.83,4.62-4.44,2.31-.29,4.04,1.85,5.51,3.29,5.54,6.27,8.37,5.97,16.23,4.82,11.89-1.89,23.92-7.43,30.6-17.79,4.14-6.86,9.32-14.48,4.9-21.69-.83-1.8-1.53-3.87-2.37-5.69-1.74-3.84-4.43-7.03-5.77-11.24-2.56-9.46,7.11-16.35,14.13-20.48,3.51-2.03,4.09-5.17,2.66-8.88-1.98-5.84-6.05-10.84-8.11-16.68-1.42-3.77-1.88-7.71-5.36-10.06-3.16-2.19-7.07-3.67-10.93-5.03-16.54-5.83-31.55-9.14-47.65.07h0ZM52.18,18.13c15.98-9.29,31.55-6.74,48.38-1.67,3.99,1.22,8.02,2.42,11.78,4.85,3.94,2.34,5.16,7.2,6.6,11.1,2.28,5.84,6.31,10.7,8.38,16.68,1.32,3.38,1.47,7.39-1.08,10.25-2.36,2.65-5.39,3.65-7.98,5.66-3.08,2.19-6.01,5.13-7.49,8.55-1.57,3.64.31,7.1,2.2,10.37,1.56,2.64,3.15,5.58,4.18,8.57,1.08,3,2.78,5.91,2.97,9.21.21,6.71-4.02,12.4-7.33,17.72-7.22,10.74-19.98,16.12-32.41,17.77-3.12.32-6.38.81-9.49.19-3.19-.76-5.53-3.36-7.64-5.6-2.08-2.2-4.4-4.79-6.83-1.45-1.3,1.61-2.36,3.5-4.05,4.82-1.83,1.26-3.76,2.08-5.96,2.4-3.59.58-6.24-2.66-7.13-5.79-1.68-3.97-.77-8.52-.34-12.5.03-2.52-.42-2.56-2.83-2.32-4.26.62-9.52.03-12.2-3.93-2.66-3.6-3.14-8.07-3.94-12.23-1.72-9.27-2.05-18.88-.6-28.22,2.86-18.6,14.88-46.23,32.82-54.42h0Z"/><g class="cls-25"><g class="cls-29"><path class="cls-24" d="M52.08,33.02s-4.19,2.85-4.19,5.08-.27,4.46,2.09,3.39,2.09-2.94,2.09-8.47Z"/><path class="cls-24" d="M73.09,35.32s-4.19,2.85-4.19,5.08-.27,4.46,2.09,3.39,2.09-2.94,2.09-8.47Z"/><path class="cls-24" d="M90.87,11.01s-4.19,2.85-4.19,5.08-.27,4.46,2.09,3.39,2.09-2.94,2.09-8.47Z"/><path class="cls-24" d="M120.34,47.84s-4.19,2.85-4.19,5.08-.27,4.46,2.09,3.39,2.09-2.94,2.09-8.47Z"/><path class="cls-24" d="M102.81,22.12s-4.19,2.85-4.19,5.08-.27,4.46,2.09,3.39,2.09-2.94,2.09-8.47Z"/><path class="cls-24" d="M102.81,55.39s-4.19,2.85-4.19,5.08-.27,4.46,2.09,3.39,2.09-2.94,2.09-8.47Z"/><path class="cls-24" d="M70.14,68.2s-4.19,2.85-4.19,5.08-.27,4.46,2.09,3.39,2.09-2.94,2.09-8.47Z"/><path class="cls-24" d="M37.61,80.87s-4.19,2.85-4.19,5.08-.27,4.46,2.09,3.39,2.09-2.94,2.09-8.47Z"/><path class="cls-24" d="M70.14,105.82s-4.19,2.85-4.19,5.08-.27,4.46,2.09,3.39,2.09-2.94,2.09-8.47Z"/><path class="cls-24" d="M88.77,118.89s-4.19,2.85-4.19,5.08-.27,4.46,2.09,3.39,2.09-2.94,2.09-8.47Z"/><path class="cls-24" d="M110.02,91.57s-4.19,2.85-4.19,5.08-.27,4.46,2.09,3.39,2.09-2.94,2.09-8.47Z"/><path class="cls-24" d="M55.87,50.25s-5.87,4.13-5.87,7.36-.37,6.45,2.94,4.9,2.94-4.26,2.94-12.26Z"/><path class="cls-24" d="M36.34,56.58s-5.87,4.13-5.87,7.36-.37,6.45,2.94,4.9,2.94-4.26,2.94-12.26Z"/><path class="cls-24" d="M52.92,89.61s-5.87,4.13-5.87,7.36-.37,6.45,2.94,4.9,2.94-4.26,2.94-12.26Z"/><path class="cls-24" d="M32.87,87.38s-5.87,4.13-5.87,7.36-.37,6.45,2.94,4.9,2.94-4.26,2.94-12.26Z"/><path class="cls-24" d="M25.15,71.79s-5.87,4.13-5.87,7.36-.37,6.45,2.94,4.9,2.94-4.26,2.94-12.26Z"/><path class="cls-24" d="M50.06,109.52s-5.87,4.13-5.87,7.36-.37,6.45,2.94,4.9,2.94-4.26,2.94-12.26Z"/><path class="cls-24" d="M116.36,104.99s-5.87,4.13-5.87,7.36-.37,6.45,2.94,4.9,2.94-4.26,2.94-12.26Z"/><path class="cls-24" d="M86.66,76.95s-5.87,4.13-5.87,7.36-.37,6.45,2.94,4.9,2.94-4.26,2.94-12.26Z"/><path class="cls-24" d="M92.76,93.98s-5.87,4.13-5.87,7.36-.37,6.45,2.94,4.9,2.94-4.26,2.94-12.26Z"/><path class="cls-24" d="M104.5,114.56s-5.87,4.13-5.87,7.36-.37,6.45,2.94,4.9,2.94-4.26,2.94-12.26Z"/><path class="cls-24" d="M57.97,120.89s-5.87,4.13-5.87,7.36-.37,6.45,2.94,4.9,2.94-4.26,2.94-12.26Z"/><path class="cls-24" d="M36.34,106.64s-5.87,4.13-5.87,7.36-.37,6.45,2.94,4.9,2.94-4.26,2.94-12.26Z"/><path class="cls-24" d="M107.45,71.52s-5.87,4.13-5.87,7.36-.37,6.45,2.94,4.9,2.94-4.26,2.94-12.26Z"/><path class="cls-24" d="M36.34,34.45s-5.87,4.13-5.87,7.36-.37,6.45,2.94,4.9,2.94-4.26,2.94-12.26Z"/><path class="cls-24" d="M57.97,11.87s-5.87,4.13-5.87,7.36-.37,6.45,2.94,4.9,2.94-4.26,2.94-12.26Z"/><path class="cls-24" d="M85.47,45.07s-5.87,4.13-5.87,7.36-.37,6.45,2.94,4.9,2.94-4.26,2.94-12.26Z"/><path class="cls-24" d="M108.76,30.55s-5.87,4.13-5.87,7.36-.37,6.45,2.94,4.9,2.94-4.26,2.94-12.26Z"/><path class="cls-24" d="M86.66,22.66s-5.87,4.13-5.87,7.36-.37,6.45,2.94,4.9,2.94-4.26,2.94-12.26Z"/><path class="cls-24" d="M70.98,13.83s-5.87,4.13-5.87,7.36-.37,6.45,2.94,4.9,2.94-4.26,2.94-12.26Z"/></g></g><path class="cls-6" d="M72.38,40.43s-1.19-.24-3.45,3.33-3.92,2.38-6.06-.71-6.89-6.3-6.18-18.65,11.52-18.65,15.68-20.79,12.95-4.28,17.94-1.19,6.53,7.13,4.63,11.29-5.82,5.47-9.03,11.41-2.73,8.91-2.73,13.19,1.07,7.84-2.02,8.67-4.73-7.13-7.95-6.65-.84.12-.84.12Z"/><path class="cls-23" d="M72.23,40.43c.1.26.17.11.09.16-2.9,1.16-2.95,6.71-6.78,6.04-1.81-.58-2.67-2.06-3.71-3.31-1.97-2.2-4.2-4.82-5.17-7.77-1.54-4.52-1.73-9.34-.85-14.03,2.09-9.32,10.32-15.68,18.63-19.36,5.67-2.12,12.92-3.68,18.15.37,4.68,3.16,5.99,8.96,2.66,13.65-2.73,3.71-6.36,6.15-8.27,10.36-3.12,5.22-2.32,11.09-2.44,16.95-.04,1.93-.92,3.99-3.11,4.44-3.78.57-4.61-4.69-6.73-6.63-.5-.48-1-.73-1.73-.61-.17.01-1.22.08-1.38.09.13.37-.25-.49-.09-.44.21-.02.5-.03.71-.05.01,0,.09-.01.11,0-.05.06.15-.15-.09.14h0ZM72.53,40.43c-.27.29-.09.09-.16.15-.24.06-.55.13-.79.19.13.06-.19-.81-.05-.44.01,0,.09-.02.1-.02.03,0,1.18-.27,1.24-.28,2.57-.68,4.21,2.49,5.49,4.05.62.77,1.21,1.61,2.05,1.94.66.15,1.34-.41,1.52-.89.59-1.87-.04-4.04-.07-6.16-.1-3.12-.4-6.33.52-9.42,1.28-4.6,4.04-8.88,7.52-12,5.72-4.8,6.16-10.2-.47-14.34-9.63-4.78-23.01,2.16-28.24,10.75-4.17,6.53-4.46,17.95-.36,24.54.76,1.2,1.68,2.3,2.61,3.62.74,1.07,1.49,2.46,2.55,2.98,1.1.37,2.05-1.11,2.73-1.97.95-1.13,2-2.64,3.58-2.85,0,0,.05,0,.05,0-.02.03.06-.09.18.16h0Z"/><path class="cls-5" d="M94.24,44.83s-.95-.59-2.5,0-4.4,1.43-4.16-1.19-.59-8.2,4.87-15.21,13.54-12.71,21.27-12.71,14.73,2.97,18.65,7.25,6.42,14.97-.83,18.3-13.19-.12-18.53.95-8.55,4.4-10.22,7.6-4.28,4.63-5.94,3.92-1.78-4.51-1.78-6.71-.36-1.37-.83-2.2Z"/><path class="cls-19" d="M94.17,44.89c-1.41-.58-2.72.5-4.11.79-2.32.55-3.19-.58-2.96-2.83-.79-9.32,5.35-17.5,12.61-22.67,4.87-3.5,10.94-5.53,16.95-4.65,7.19.89,15.35,3.87,18.66,10.83,2.35,4.76,2.78,11.81-2.18,15.1-4.58,3.02-10.63,2.44-15.64,1.72-5.48-.9-11.22,1.96-13.92,6.85-.73,1.33-1.72,2.65-3.07,3.54-4.27,2.61-5.8-.7-5.7-4.63-.05-1.08.15-2.21,0-3.26-.06-.3-.55-.49-.63-.8h0ZM94.31,44.76c.21.4.65.38.79.83.39,1.8.18,3.67.69,5.45.97,4.89,5.3.96,6.39-1.74,1.38-2.76,3.63-5.14,6.43-6.58,2.73-1.51,6.07-2.01,9.09-1.65,5.43.62,11.7,1.71,15.82-2.47,3.41-4.39,1.59-11.21-1.57-15.29-3.82-4.33-9.66-6.62-15.36-7.13-8.89-1.02-16.56,4.97-22.15,11.24-3.95,4.24-6.27,9.64-6.28,15.47-.24,1.75-.08,2.35,1.77,2.12,1.42-.17,2.97-1.16,4.38-.26h0Z"/><path class="cls-20" d="M32.46,47.03s9.03-5.29,18.42-2.91,14.97,5.82,18.89,8.55,12.71,7.37,19.25,7.49,11.05-1.19,19.37-4.4,12.48-4.16,16.63-1.31,8.2,6.53,6.65,15.45-6.3,20.55-18.18,26.38c-11.88,5.82-30.77,13.19-53.23,5.82s-23.76-7.6-35.41-24.59c0,0-12-20.43,7.6-30.47Z"/><path class="cls-27" d="M32.43,46.98c5.22-2.78,11.32-4.26,17.23-3.25,5.83,1.21,11.48,3.3,16.64,6.31,4.97,3.17,9.95,6.45,15.62,8.24,8.45,3.19,17.58.53,25.67-2.6,5.37-1.83,11.89-5.14,17.24-1.59,2.47,1.63,4.86,3.65,6.14,6.42,2.47,5.62.54,11.94-1.3,17.45-2.06,5.58-5.38,10.79-10,14.63-4.62,3.84-10.3,6.02-15.8,8.27-12.51,4.89-26.49,6.29-39.59,2.95-4.16-1.19-8.69-2.67-12.76-4.08-5.61-1.96-11.46-3.96-15.96-8.02-4.46-4.07-7.65-9.13-11.02-14.08-6.06-11.51-4.72-24.57,7.88-30.65h0ZM32.48,47.07c-12.48,6.19-13.61,18.88-7.37,30.23,3.41,4.73,6.7,9.82,11.09,13.7,4.4,3.87,10.1,5.84,15.67,7.76,4.03,1.39,8.55,2.87,12.68,4.03,12.9,3.35,26.65,2.01,39.06-2.64,5.45-2.14,11.12-4.25,15.72-7.97,4.57-3.73,7.9-8.84,9.98-14.35,1.87-5.39,3.85-11.69,1.36-17.17-2.69-5.01-8.63-9.18-14.45-7.2-2.86.69-5.61,1.79-8.37,2.87-8.17,3.34-17.58,6.08-26.2,2.77-5.72-1.87-10.72-5.18-15.66-8.52-5.02-3.09-10.61-5.28-16.37-6.59-5.82-1.13-11.95.37-17.14,3.08h0Z"/><path class="cls-9" d="M41.61,42.21s2.07.24,2.4-2.61.57-12.95-14.88-11.76S7.63,42.1,3.71,47.03s-4.51,26.08-1.31,28.45,4.87.58,5.94-1.14-2.73-9.44-.71-14.07,4.16-6.89,4.51-4.04.71,9.03,2.85,10.34,3.28,2.6,4.76-.36-.84-7.13-1.44-11.52-2.61-9.62.83-14.02,4.28-6.06,5.94-3.68.12,6.89,3.33,5.7,2.38-7.42,5.47-6.74,3.33,4.36,4.75,5.55,2.97.71,2.97.71Z"/><path class="cls-11" d="M41.6,42.11c3.24-.19,2.18-5.61,1.5-7.65-3.29-8.61-17.41-6.42-23.83-2.84-6.35,3.44-10.46,9.5-14.64,15.21-.62.75-1.19,1.57-1.55,2.49-1.51,3.72-2.05,7.89-2.34,11.96-.19,4.04-.23,8.28.9,12.18.24.68.48,1.35,1.05,1.77,2.06,1.56,3.95,1.21,5.19-1.09.32-.72-.01-1.84-.16-2.67-1.49-5.91-2.58-9.95,1.18-15.38.66-1.07,2.19-2.83,3.52-1.53.82,1.1.65,2.53.87,3.69.34,2.36.52,4.95,1.75,7,.24.35.53.52.89.73.56.35,1.5,1.03,1.99,1,2.73-2.36.28-7.05-.3-10.25-.6-4.14-2.03-8.41-1.14-12.7.82-3.29,3.25-5.62,5.41-8.1.21-.18.53-.46.78-.59,1.14-.7,2.38.03,3.01,1.05,1.08,1.53,1,3.17,1.28,4.78.07.46.22.88.33.93.35.28,1.52-.25,1.83-.67,1.74-1.58,1.52-6.35,4.74-5.94,1.72.28,2.91,1.86,3.52,3.3.45.93.76,1.96,1.46,2.59.73.64,1.75.95,2.77.74h0ZM41.62,42.31c-4.25.99-4.09-3.79-6.65-5.44-2.34-1.43-2.79.6-3.4,2.46-.52,1.95-2.07,4.65-4.55,4.2-1.56-.38-1.58-2.39-1.81-3.64-.15-1.2-.62-2.69-1.51-3.12,0-.02-.05.02-.17.07l-.21.15c-.77.7-1.39,1.61-2.09,2.51-1.92,2.29-3.28,4.69-2.99,7.8.41,3.88,1.2,8.07,2.22,11.93.56,2.15,1.23,4.36.54,6.68-1.27,3.37-3.2,4.03-6.14,1.76-2.14-1.19-2.58-3.92-2.98-6.07-.36-1.78-.38-4.12-.75-5.81-.02-.05.04.04.08.04.04,0,.08.04.13.04.06,0,.08-.01.08,0-.34.16-.83.76-1.12,1.19-1.02,1.55-2.12,3.42-2.43,5.25-.5,3.54.77,7.01,1.16,10.56.02.53.07,1.18-.31,1.81-1.53,2.59-4.02,3.1-6.45,1.16-3.31-3.13-2.17-16.25-1.61-20.79.38-2.57.83-5.26,2.08-7.62.82-1.32,1.78-2.55,2.61-3.89,3.35-5.31,7.43-10.46,13.09-13.46,6.8-3.75,20.58-5.42,24.9,2.6,1.29,2.23,2.26,9.75-1.7,9.64h0Z"/><path class="cls-9" d="M132,85.7s6.08,5.35,7.86,13.9.69,16.51-3.93,23.41-10.21,9.74-11.4,5.23,2.73-7.72,5.7-10.93,5.23-7.01,3.92-10.69c0,0-1.07-6.77-5.11-.36,0,0-.71,4.4-3.09,5.94s-7.13,1.66-5.58-3.33,6.8-6.65,6.31-9.03.1-4.08-4.17-7.27c-4.28-3.19-.71-8.42,1.07-8.66s3.52-1.9,8.42,1.78Z"/><path class="cls-11" d="M132.07,85.62c10.13,9.35,12.83,26.35,4.5,37.71-1.92,2.91-9.62,11.31-12.19,5.38-2.15-7.33,7.31-11.04,9.04-17.36.5-1.52.54-3.11,0-4.52-.15-.74-.38-1.54-.82-2.12-.75-1.22-2.28,1.37-2.75,2.04,0,0,.13-.34.13-.34-.22,1.26-.56,2.41-1.08,3.58-.53,1.13-1.25,2.33-2.5,3.13-2.34,1.58-6.9,1.67-7.33-1.91-.16-2.84,1.22-5.15,2.99-7.08,1.17-1.36,2.8-2.29,3.64-3.76.03-.13.04-.2.04-.34-.22-1.29-.23-2.65-.73-3.59-.88-2.07-3.43-3.16-4.47-5.17-1.37-2.62-.02-6.04,2.43-7.43.85-.3,1.72-.38,2.62-.6,2.44-.39,4.63,1.02,6.48,2.4h0ZM131.94,85.77c-1.8-1.3-3.99-2.65-6.28-2.14-.74.2-1.72.44-2.43.73-1.9,1.28-2.91,4.31-1.61,6.28,1.29,1.75,3.88,2.73,4.98,4.96.69,1.2.79,2.6.98,3.63.21.77.17,1.63-.25,2.34-1.66,2.46-4.34,3.86-5.51,6.58-.48,1.19-1.1,2.67-.25,3.59,1.02.71,2.7.28,3.76-.33,1.69-1.07,2.46-3.59,2.86-5.52.45-.64.87-1.29,1.44-1.89,2.65-2.9,4.9-.67,5.31,2.5.49,1.05.41,3.86-.3,5.3-1.31,3.29-3.92,5.7-6.34,8.1-2.23,2.24-4.57,5.34-3.32,8.61.25.74.76,1.36,1.48,1.5,3.72.28,7.06-4.67,8.94-7.45,6.75-11.07,6.27-27.54-3.45-36.77h0Z"/><g class="cls-14"><circle class="cls-12" cx="41.64" cy="56.78" r="10.81"/><circle class="cls-18" cx="35.65" cy="82.44" r="10.81"/><circle class="cls-13" cx="72.52" cy="80.33" r="10.81"/><circle class="cls-21" cx="108.72" cy="67.59" r="10.81"/><circle class="cls-10" cx="103.47" cy="96.11" r="10.81"/><circle class="cls-26" cx="61.71" cy="60.51" r="7.08"/><circle class="cls-28" cx="54.63" cy="89.52" r="7.08"/><circle class="cls-17" cx="94.56" cy="80.33" r="7.08"/><circle class="cls-4" cx="119.65" cy="82.44" r="7.08"/><circle class="cls-1" cx="78.3" cy="100.14" r="7.08"/><circle class="cls-16" cx="85.38" cy="63.86" r="7.08"/></g><path class="cls-6" d="M60.38,138.86s-1.43-4.92,6.77-16.21c0,0,2.26-3.56,1.66-10.22s1.54-14.73,6.06-17.23,11.52-4.4,18.42,0,10.34,11.76,10.46,23.05-4.16,22.46-15.21,26.14-24.12,5.45-28.16-5.53Z"/><path class="cls-23" d="M60.24,138.9c-.43-3.4,1.02-6.57,2.31-9.61,1.12-2.45,2.46-4.81,3.9-7.08,1.17-2.61,1.34-5.62,1.18-8.45-.86-7.22.76-17.34,8.53-20.12,10.08-4.32,20.89.62,25.66,10.18,5.61,11.88,4.58,30.84-6.84,39.05-5.37,3.57-11.95,4.84-18.32,5.2-7.01.31-13.92-2.04-16.41-9.16h0ZM60.52,138.81c3.99,10.73,16.83,7.77,25.28,4.93,2.52-.82,5.19-1.84,7.31-3.43,5.3-3.97,8.1-10.45,8.94-16.95,1.02-9.16.39-20.23-7.32-26.49-4.9-4.35-12.24-4.85-17.89-1.71-1.47.74-2.64,1.51-3.5,2.74-2.61,3.82-3.3,8.73-3.28,13.3.11,1.53.17,3.56-.01,5.06-.26,2.41-.91,4.81-2.22,6.89-3.46,4.51-7.65,9.68-7.3,15.67h0Z"/><path class="cls-9" d="M93.17,63.36s-6.18,5.94-6.42,7.72-1.66,4.51,1.54,6.42,8.32-.45,9.5-2.84,1.07-8.68,2.02-11.3,1.79-5.11,3.92-3.92.71,4.63,1.54,8.2,5.82,4.28,7.37,3.09,4.63-2.14.71-8.91c0,0-4.75-3.33-4.4-7.25s3.09-5.47,5.11-5.11,4.75,1.78,6.06,5.94,4.16,4.04,5.58,3.33,1.07-4.5-2.5-9.32.83-6.64,2.73-5.91,5.7.02,8.44,6.55-.95,12.83-3.92,15.56-11.64,9.71-17.58,12.58c-5.94,2.87-14.29,8.34-25.32,7.98s-11.25-7.6-10.96-9.86,1.15-7.27,10.96-14.85c9.81-7.58,5.6,1.9,5.6,1.9Z"/><path class="cls-11" d="M93.25,63.42c-2.07,2.25-4.32,4.48-5.86,7.08-.18.36-.24.55-.29.99-.17,1.01-.54,2.31-.32,3.28,1.52,5.16,10.54,2.53,10.87-2.17.93-4.64.23-9.98,3.63-13.8,1.35-1.16,3.59-.21,4.2,1.32.99,2.56-.15,5.52.91,7.98.84,1.85,3.87,2.91,5.75,1.99.75-.52,1.93-1.18,2.22-2,.63-2-.61-4.11-1.53-5.96,0,0,.19.2.19.2-3.07-2.28-5.78-6.29-3.89-10.14,1.93-4.48,7.02-3.69,9.62-.27,1.82,2,1.57,5.6,4.31,6.67.79.28,1.69.21,2.45-.14.66-.26.72-1.28.63-2.1-.23-1.77-1.08-3.44-2.02-4.96-.98-1.61-2.49-2.99-2.69-5.03-.27-2.64,2.8-4.24,5.09-3.3,5.18.46,8.15,4.15,9.34,8.99.91,3.88-.16,7.99-2.25,11.23-2.08,3.23-5.32,5.43-8.22,7.84-4.36,3.44-9.05,6.73-14.14,9.08-8.22,4.41-17.4,8.32-27.09,6.51-6.76-1.17-10.1-7.2-7.53-13.58,1.45-3.58,4.09-6.43,6.91-8.95,3.02-2.84,14.08-11.28,9.73-.77h0ZM93.09,63.3c4.39-11.76-10.77,3.02-12.5,5.7-1.62,2.15-2.88,4.52-3.18,7.18-1.04,9.8,10.92,9.8,17.75,8.3,6.24-1.28,11.94-4.53,17.6-7.41,4.05-2.06,7.77-4.73,11.42-7.49,2.77-2.26,5.9-4.28,7.9-7.28,1.94-2.9,2.96-6.51,2.23-9.91-.79-3.29-2.64-6.92-6.08-7.72-.76-.22-1.63-.33-2.41-.61-.78-.29-1.76-.14-2.48.33-1.54.98-.97,2.96-.08,4.27,1.45,2.09,5.6,8.47,2.52,10.42-1.88.93-4.22-.02-5.14-1.82-.92-1.66-1.17-3.49-2.42-4.92-1.09-1.39-2.74-2.36-4.45-2.54-3.68-.17-5.36,4.85-3.59,7.67.86,1.55,2.23,2.89,3.68,3.91,1.18,2.13,2.74,4.63,1.92,7.26-.51,1.35-1.65,2.03-2.68,2.78-2.74,1.58-6.82.3-8.28-2.56-.73-1.65-.7-3.27-.71-4.95,0-1.88.23-3.6-1.3-3.89-.18-.02-.28,0-.46.13-.85.78-1.37,2.53-1.81,3.69-.82,2.91-.76,6.08-1.41,9.07-.21,1.61-1.28,3.39-2.73,4.22-4.17,3.1-12.13,1.85-10.38-4.68.21-.71.31-1.68.71-2.31,1.76-2.64,4.09-4.72,6.36-6.84h0Z"/><path class="cls-22" d="M66.85,12.84c-.01-.6.23-1.22.74-1.56.46-.31,1.05-.25,1.52.03,1.13.66,1.19,2.3.52,3.3-.28.42-.71.74-1.23.75-.63.02-1.25-.33-1.65-.79-.44-.5-.67-1.15-.72-1.81s.05-1.45.59-1.89c.97-.79,2.24.05,2.69,1,.25.54.33,1.13.19,1.7-.11.48-.4,1.03-.87,1.23s-1.08-.09-1.44-.43c-.42-.39-.71-.94-.73-1.52-.02-.47.12-1.1.63-1.25.61-.19,1.28-.21,1.75.27.43.43.67,1.12.39,1.7-.21.45-.7.83-1.22.75-.38-.06-.63-.31-.72-.68-.04-.18-.06-.36-.03-.54,0-.07.02-.16.05-.23.02-.04.04-.08.07-.12.05-.05.05-.05,0-.02l-.07.02s-.06,0-.02.01c0,.01.07.19.08.22.01.17-.03.36-.08.52-.1.29-.31.59-.59.74l.69.12c-.11-.49.04-1.05.45-1.37.11-.09.25-.17.37-.04.18.22-.07.61-.19.81-.02.04-.09.1-.1.14-.02.08.12,0,.11-.02,0-.02-.1-.07-.12-.09-.05-.05-.09-.11-.12-.18-.12-.28-.07-.64-.01-.93,0-.04.05-.14.06-.18-.42-.01-.55.03-.41.14.03.02.05.05.07.08.08.1.13.22.16.34.08.3.04.6-.12.86h.94c.08-.57-.18-1.16,0-1.7.03-.1.09-.16.14-.24-.05.07-.1-.03.01.04.18.11.29.35.21.56-.18.49.78.42.91.07.14-.39.09-.8-.25-1.07-.37-.29-.93-.27-1.34-.07s-.64.57-.7,1.01c-.07.5.12.99.05,1.48-.03.21.22.27.37.27.21,0,.46-.09.57-.28.22-.35.29-.79.18-1.19-.12-.43-.45-.83-.94-.8s-.82.36-.9.84c-.07.43-.1.93.18,1.29.3.39.84.48,1.28.3s.69-.56.87-.97.18-.85-.23-1.09c-.38-.22-.91-.14-1.29.02-.85.37-1.37,1.31-1.17,2.22.06.26.53.2.69.12.42-.23.78-.54,1.01-.96.18-.34.33-.84.18-1.22-.17-.44-.73-.5-1.13-.38-.48.14-.81.52-.87,1.02-.05.42.03.89.29,1.23s.75.51,1.18.54c.86.06,1.75-.35,2.24-1.06s.42-1.56-.07-2.22c-.59-.8-1.52-.93-2.44-.77-.51.09-1,.21-1.39.56-.29.25-.47.6-.55.97-.18.8.11,1.65.66,2.23.61.65,1.51.97,2.39.77.83-.18,1.48-.81,1.78-1.59.59-1.58-.35-3.56-2.06-3.88-.86-.16-1.81.08-2.46.66-.72.64-.86,1.68-.74,2.59s.6,1.76,1.37,2.27,1.74.63,2.59.34c1.68-.58,2.5-2.64,1.64-4.2-.95-1.71-3.57-1.49-4.5.11-.21.36-.33.78-.32,1.19,0,.46.98.28.97-.1h0Z"/><path class="cls-22" d="M62.96,24.06c-.37-.61.02-1.45.73-1.52.82-.08,1.5.66,1.78,1.36.25.64.26,1.39-.04,2.01s-.89.85-1.53.63c-.81-.28-1.31-1-1.55-1.79-.13-.43-.2-.87-.23-1.32-.02-.39-.04-.81.34-1.03,1.29-.74,3.07-.06,3.82,1.13.45.7.42,1.53-.13,2.16-.48.56-1.19.77-1.9.58-.8-.21-1.47-.78-1.91-1.46-.26-.4-.41-.82-.08-1.23.24-.3.56-.54.92-.69.69-.27,1.46-.1,1.98.44s.72,1.38.31,2.07c-.31.53-1.2,1.04-1.48.21-.12-.35-.1-.74.05-1.07.11-.24.32-.55.6-.58.37-.04.37.44.25.67-.1.19-.26.34-.42.48-.02.02-.09.06-.09.08-.05.12.25-.05.23,0,0,0-.12-.21-.13-.23-.19-.45-.3-.96-.3-1.45,0-.11,0-.23.02-.33.05-.15.16-.14-.16-.09-.29.05-.21.04-.14.26.04.12.07.25.1.38.09.38.17.92-.14,1.23-.22.22-.38.08-.5-.18-.09-.2-.14-.43-.2-.65-.03-.12-.07-.25-.1-.37-.02-.06-.03-.16-.06-.21l-.02-.08-.43.18s.29.3.36.38c.15.18.3.36.43.55.27.38.51.79.71,1.21.1.22.35.27.57.21.16-.04.5-.25.39-.46-.29-.62-.64-1.21-1.07-1.75-.38-.47-.88-1.08-1.56-.76-.29.14-.43.4-.37.72.07.37.2.76.32,1.11.2.59.63,1.02,1.29.95.57-.06,1.13-.46,1.33-1,.22-.6.09-1.42-.18-1.98-.32-.67-1.24-.35-1.47.21s-.07,1.36.11,1.91c.09.27.2.6.43.79.3.24.69.2,1.01.03.51-.28,1.07-.9,1.1-1.5.03-.65-.51-1.02-1.12-1.01s-1.19.37-1.53.87c-.62.93-.47,2.6.9,2.67,1.2.06,2.35-.91,2.47-2.11s-.79-2.23-1.88-2.51c-1.21-.31-2.61.18-3.37,1.18-.18.23-.33.5-.35.8-.02.36.13.71.32,1.01.3.5.72.95,1.21,1.28,1.02.7,2.37.88,3.48.27,1.02-.56,1.78-1.72,1.41-2.91-.35-1.12-1.41-1.94-2.51-2.24s-2.44-.21-3.33.53c-.56.47-.54,1.12-.48,1.79.06.63.2,1.24.48,1.81.54,1.08,1.7,1.84,2.93,1.65,1.14-.17,1.92-1.1,2.05-2.22s-.38-2.31-1.34-2.91c-1.05-.65-2.69-.45-3.27.74-.24.5-.23,1.08.06,1.55.23.37,1.15,0,.88-.43h0Z"/><path class="cls-22" d="M67.82,37.13c-.42-.7-.94-1.77-.37-2.54.47-.63,1.32-.15,1.71.31.53.63.83,1.76.41,2.52-.34.61-1.02.74-1.64.5-.8-.3-1.41-1.03-1.8-1.77-.36-.69-.62-1.79.34-2.1,1.64-.52,3.77.72,3.52,2.6-.05.4-.21.78-.47,1.09-.29.34-.66.47-1.1.48-.89.03-1.81-.26-2.49-.84s-1.08-1.4-1.11-2.27c-.01-.41.06-.92.32-1.26s.67-.32,1.05-.33c.87-.01,1.81.16,2.45.8.51.51.77,1.37.48,2.06-.33.79-1.45,1.01-2.12.53-.57-.41-.9-1.18-.73-1.88.15-.6.68-1.07,1.32-.97.71.11,1.15.78,1.21,1.46.03.35-.03.72-.2,1.02-.08.15-.2.25-.31.37-.18.19.09-.07.09,0,0,0-.11-.07-.12-.07-.1-.08-.17-.18-.24-.28-.26-.42-.4-.93-.43-1.43,0-.05,0-.11,0-.16-.03-.14.13-.14-.16-.08-.31.06-.06.04.06.12.17.11.31.28.39.47.1.23.14.48.16.72.01.17.09.5-.04.63l.26-.17-.07.03.38-.08c.1,0-.02-.06-.06-.11-.05-.06-.08-.13-.12-.19-.09-.16-.17-.33-.23-.51-.12-.34-.18-.68-.2-1.04l-.93.31c.46.52.72,1.15.78,1.84l.97-.26c-.31-.56-.51-1.16-.59-1.79-.03-.27-1.01-.06-.97.26.08.63.27,1.23.59,1.79.15.27.99.06.97-.26-.07-.73-.36-1.39-.84-1.94-.18-.2-.95.02-.93.31.03.62.21,1.34.61,1.83.36.44,1.36.25,1.42-.35s-.05-1.33-.5-1.75-1.26-.45-1.71-.03c-.24.22-.2.53-.16.83.04.37.15.74.31,1.07.12.25.27.5.51.65.3.18.68.15,1,.05,1.07-.32,1.58-1.55,1.2-2.57-.81-2.16-4.67-1.14-4.38,1.12.07.51.34,1,.73,1.33.47.39,1.07.5,1.66.44,1.21-.11,2.59-.8,2.53-2.18-.05-1.22-1.08-2.01-2.19-2.28-.62-.15-1.27-.17-1.91-.12s-1.37.22-1.8.73c-.8.93-.47,2.46.19,3.37.76,1.05,2.08,1.54,3.34,1.55s2.66-.53,3.05-1.87c.33-1.15-.28-2.32-1.27-2.92-1.14-.69-2.73-.62-3.9-.03-.56.28-.9.75-.88,1.39.02.6.32,1.16.65,1.65.67,1,1.71,1.69,2.94,1.57,1.15-.11,2.28-.82,2.3-2.07.02-1.17-.69-2.41-1.91-2.61-1.14-.18-2.55.46-2.57,1.74,0,.65.29,1.27.62,1.82.17.29,1.09-.05.97-.26h0Z"/><path class="cls-22" d="M75.27,24.92c-.13-.04-.14-.3-.12-.4.04-.18.16-.21.33-.22.44-.01.88.19,1.22.45.68.52,1.07,1.41.77,2.24-.26.73-.98,1.32-1.77.99-.84-.36-1.4-1.33-1.54-2.2-.17-1.02.46-1.75,1.43-1.93.91-.18,1.9.04,2.68.55.83.55,1.3,1.51.75,2.44-.5.83-1.58,1.26-2.48,1.46s-1.95.09-2.67-.56c-.62-.56-1.02-1.45-.72-2.28.63-1.73,3.28-1.68,4.38-.51.63.66,1.01,1.9.01,2.42-.82.43-1.91.35-2.56-.35-.53-.57-.74-1.52-.17-2.14s1.42-.42,1.97.11c.35.33.58.76.69,1.23.06.24.09.52,0,.76-.1.28-.25.3-.51.21-.44-.16-.85-.55-1.14-.91-.26-.32-.56-1.03-.08-1.33-.13.08-.05.02.05.13.09.09.14.21.17.32.07.21.1.43.11.65,0,.11.02.23-.01.34,0,.07-.04.14-.08.19.14-.04.15-.06.03-.08-.06-.06-.16-.09-.23-.16-.1-.11-.16-.25-.21-.39-.07-.23-.12-.5-.1-.74,0-.07.06-.18.05-.24-.42.02-.55.11-.37.28.05.06.09.13.13.21.24.46.25.99.06,1.46l.97-.19c-.35-1.03-.44-2.11-.28-3.19.06-.39-.92-.22-.97.12-.17,1.12-.08,2.26.28,3.33.12.37.87.06.97-.19.24-.61.16-1.3-.21-1.85-.18-.27-.41-.43-.75-.4-.31.02-.63.17-.77.47-.23.48-.05,1.31.3,1.7.42.47,1.22.47,1.72.15.55-.36.5-1.08.35-1.64-.17-.63-.7-.94-1.34-.79-.58.14-1.11.63-1.09,1.26.01.68.58,1.22,1.08,1.61.57.44,1.23.64,1.93.41s1.01-.75.95-1.45c-.11-1.25-1.19-2.33-2.46-2.34-1.18,0-2.56.78-2.53,2.1.04,1.42,1.43,2.21,2.72,2.17s3.14-.73,2.88-2.31c-.23-1.42-1.64-2.21-2.96-2.32s-2.78.31-3.6,1.36-.45,2.46.51,3.27c1.17.99,2.86.9,4.23.44,1.24-.41,2.88-1.24,2.96-2.74s-1.47-2.31-2.68-2.56c-1.29-.27-2.99-.05-3.92.98s-.35,2.84.63,3.71,2.57.78,3.53-.17.96-2.31.04-3.26c-.81-.83-2.61-1.33-3.49-.32-.37.42-.22,1,.31,1.17.32.1,1.13-.36.59-.54h0Z"/><path class="cls-22" d="M76.66,13.63c.07-.35.19-.69.4-.98.16-.23.41-.51.7-.56.78-.13,1.35.63,1.51,1.28s.17,1.72-.69,1.88c-.74.14-1.54-.21-2.05-.73s-.88-1.38-.74-2.12,1.09-1.1,1.74-1.16c.76-.08,1.59.14,2.18.63s.96,1.35.66,2.11c-.23.59-.78.95-1.35,1.17-.29.11-.6.19-.91.25-.41.08-.74-.06-1.01-.38-.44-.53-.61-1.35-.6-2.02.01-.58.28-1.49.98-1.53,1.4-.08,3.14,1.58,2.57,3.03-.3.76-1.11.98-1.83.72s-1.26-1.01-1.17-1.78c.04-.34.21-.68.47-.9.06-.05.12-.09.2-.13-.09.05-.08,0,.01.02.17.04.32.08.47.18.29.19.5.49.53.84,0,.11,0,.21-.03.32-.01.04-.13.2-.12.22-.02-.09.29.05.18-.06-.02-.02-.09-.03-.11-.04-.09-.05-.18-.13-.23-.22-.08-.12-.12-.28-.12-.43,0-.08.01-.17.04-.25.02-.05.05-.09.06-.13l.05-.07-.52.13s.1.09.12.12c.03.05.04.12.05.18.03.17,0,.35-.04.52-.02.09-.06.16-.09.25-.04.11-.24.13.14.03.45-.13.2-.02.14-.07-.15-.12-.29-.15-.38-.34-.18-.39-.05-.88.06-1.27.05-.16.12-.3.2-.45l.06-.07-.32.07s.06.02.07.02c.06.06.11.07.14.16.1.24,1.04-.07.97-.26-.2-.5-.96-.34-1.34-.18-.56.23-.73.76-.84,1.31-.1.5-.07,1.08.46,1.32.46.21,1.18.05,1.51-.33.24-.28.38-.96.1-1.27-.34-.38-1.2-.06-1.46.29-.27.37-.18.95.19,1.22.45.32,1.2.15,1.63-.13s.51-.88.24-1.32-.7-.67-1.19-.7c-1.05-.08-2.24.64-2.28,1.77-.04,1.19,1.12,1.94,2.2,1.94s2.6-.5,2.8-1.71c.18-1.07-.59-2.09-1.48-2.58-1.03-.57-2.51-.54-3.43.25-.78.67-.75,1.84-.46,2.74.15.47.41.99.86,1.23.56.29,1.25.13,1.83-.02.93-.23,2.01-.59,2.63-1.37.71-.89.41-2.11-.45-2.79-.9-.71-2.17-.8-3.26-.57-.62.13-1.22.36-1.74.71s-.82.74-.8,1.37c.04,1.11.79,2.1,1.82,2.48.56.21,1.17.23,1.75.13s1.22-.3,1.61-.74c.68-.77.34-2.34-.48-2.9-.92-.62-2.36-.27-3.11.47-.37.36-.61.84-.7,1.35-.04.23.91.08.95-.17h0Z"/><path class="cls-22" d="M79.2,3.5c-.02-.35.14-.69.42-.92.03-.02.06-.04.09-.07.02-.01.13-.06.04-.03-.08.02.1.01.14.02.2.02.39.09.57.17.56.28,1.44,1.16.88,1.82-.24.28-.7.41-1.03.52-.37.12-.79.23-1.18.2-.83-.08-1.38-.88-.9-1.63.86-1.35,3.2-.94,4.02.26.41.6.45,1.52-.16,2.01-.25.2-.56.27-.87.34-.43.09-.86.17-1.3.17-.76,0-1.57-.31-1.98-.99s-.23-1.5.3-2.06,1.34-.82,2.07-.77c.84.06,1.39.72,1.75,1.43.3.61.62,1.46.25,2.11-.15.27-.33.38-.63.4-.39.03-.81.02-1.2-.02-.72-.08-1.58-.53-1.49-1.38.04-.38.29-.73.54-1,.27-.29.57-.57.9-.8.3-.2.51-.27.87-.14.34.12.6.39.7.74.2.67-.13,1.4-.73,1.73-.23.12-.7.26-.85-.02-.08-.15-.07-.35-.08-.51-.01-.2-.03-.4-.04-.6s0-.41.06-.6c.03-.08.09-.15.12-.22.02-.07.21-.09-.11,0-.26.07-.14.02-.05.08.35.22.03.73-.14.95-.22.3-.51.52-.85.66l.76-.08c-.07-.29-.14-.6-.08-.9.02-.12.06-.24.14-.34.07-.09.23-.14-.05-.06-.25.07-.15.03-.04.11.33.26.29.78.65,1.04.14.1.48-.02.62-.07.05-.02.42-.16.3-.25-.29-.21-.3-.59-.49-.87-.22-.31-.58-.32-.93-.25-.38.08-.82.24-1.04.59-.23.38-.13.86-.04,1.26.04.18.67-.05.76-.08.49-.19.94-.5,1.26-.93.22-.3.53-.89.05-1.12-.43-.2-1.12.02-1.48.28-.42.31-.39.87-.35,1.34.02.25,0,.54.08.78.08.25.3.32.55.33.57.02,1.17-.13,1.7-.35.86-.37,1.65-1.25,1.26-2.25-.43-1.08-1.9-.88-2.74-.5-.52.23-.95.59-1.36.98-.36.35-.72.75-.8,1.26s.2.95.62,1.22c.47.31,1.05.36,1.6.38.95.03,2.32.01,2.94-.85s.02-2.11-.49-2.84c-.3-.42-.7-.76-1.21-.9-.58-.16-1.22-.08-1.8.05-1.06.23-2.29.68-2.77,1.74-.45.99.09,1.97,1.03,2.4,1.09.49,2.41.22,3.52-.05.97-.24,2.11-.73,2.07-1.91-.04-1.09-1.05-1.76-2.01-2-1.13-.27-2.52-.05-3.5.57-.42.27-.83.66-.91,1.17s.21.92.63,1.14c.53.28,1.18.21,1.75.11.63-.11,1.24-.31,1.82-.56.44-.19,1.03-.43,1.15-.95.11-.47-.19-.94-.52-1.25-.84-.78-2.2-.79-3.11-.1-.36.27-.59.67-.57,1.13,0,.13.98-.01.97-.26h0Z"/><path class="cls-22" d="M90.45,10.49c-.08-.52-.2-1.23.17-1.66.34-.39,1.02.08,1.29.36.74.76.86,2.08.12,2.89s-1.93.66-2.65-.14c-.79-.88-.81-2.2-.02-3.09.41-.45.91-.64,1.51-.62.57.02,1.23.13,1.6.6.2.26.3.61.39.92.11.35.19.71.2,1.08.02.62-.23,1.2-.68,1.62-.79.73-2.22,1.22-3.22.68s-1.47-1.75-1.16-2.82,1.27-1.87,2.41-1.84,2.36.79,2.81,1.91c.2.49.26,1.07.03,1.56s-.72.78-1.21.97c-1.05.4-2.62.96-3.52-.01-.47-.5-.47-1.32-.41-1.96.06-.58.26-1.13.73-1.49.35-.27.79-.38,1.23-.4.5-.02,1.18.05,1.53.45.37.42.53,1.15.58,1.7.06.59-.08,1.24-.63,1.55-.79.44-2.22.61-2.85-.18-.66-.83-.22-2.67.88-2.93,1.29-.3,1.87,1.3,1.71,2.3-.09.54-.34,1.06-.72,1.45-.09.09-.18.17-.28.25-.06.04-.12.07-.17.11-.19.14.13-.09.11-.03.02-.08-.1-.36-.12-.44-.04-.2-.06-.41-.07-.62-.03-.66.07-1.41.37-2.01.06-.12.13-.24.22-.34,0,0,.12-.11.12-.11l.02-.02c-.14-.03-.17,0-.1.11-.01.12.03.24.02.37-.02.16-.06.32-.11.47-.18.48-.56.89-1.07.99l.55.1c-.1-.68-.03-1.36.23-2,.06-.14.16-.28.21-.42.02-.03.05-.06.08-.09l-.31.04s.09.23.09.25c.08.33.16.69.14,1.04-.03.44-.29,1.02-.82.92-.58-.11-.93-.7-1-1.24-.04-.31-1.01-.1-.97.26.11.93.92,1.57,1.85,1.53.98-.05,1.89-.69,1.91-1.73,0-.26-.03-.52-.08-.77-.05-.23-.08-.52-.28-.68-.37-.28-1-.04-1.31.23-.35.31-.53.83-.65,1.28-.13.53-.15,1.09-.07,1.63.03.2.44.13.55.1.76-.16,1.46-.65,1.81-1.35.17-.33.26-.7.22-1.07-.04-.45-.46-.54-.85-.48-.88.14-1.36.87-1.58,1.67-.13.46-.18.93-.17,1.41,0,.4.02.95.24,1.3.24.39.8.27,1.15.11s.66-.39.92-.65c.51-.52.86-1.22.92-1.95s-.16-1.59-.78-2.05-1.5-.52-2.24-.27c-.78.26-1.39.85-1.67,1.62-.27.72-.25,1.68.35,2.24.53.5,1.32.58,2.01.54.78-.05,1.65-.24,2.31-.68.7-.46.96-1.19.88-2.01-.07-.74-.32-1.71-1.01-2.09-.64-.35-1.51-.39-2.21-.29s-1.46.37-1.99.87c-.61.57-.8,1.33-.8,2.14,0,.87.21,1.66,1.02,2.1s1.76.34,2.62.14,1.7-.44,2.42-.88c.64-.38,1.14-.99,1.18-1.75.04-.72-.27-1.43-.74-1.97-1.09-1.27-3.08-1.59-4.59-.95-1.37.59-2.44,2.09-2.02,3.61.19.7.67,1.3,1.29,1.67.79.46,1.73.39,2.58.18,1.47-.36,3.14-1.34,3.13-3.04,0-.48-.12-.95-.27-1.41-.13-.4-.3-.81-.65-1.07-.66-.5-1.65-.57-2.44-.49-1.56.16-3.04,1.46-2.87,3.12s1.74,2.57,3.25,2.29,2.75-1.57,2.37-3.17c-.17-.68-.63-1.31-1.27-1.6-.73-.33-1.73-.25-2.31.33-.55.55-.47,1.37-.36,2.07.05.32,1.02.09.97-.26h0Z"/><path class="cls-22" d="M79.35,35.83c-.41-.29-.89-.62-.95-1.17s.39-.7.85-.73c.94-.06,1.9.36,2.46,1.13s.69,1.84.2,2.66c-.4.66-1.13,1.05-1.9.92-.9-.16-1.64-.9-1.98-1.72-.17-.42-.29-.94-.18-1.39.12-.51.64-.8,1.08-1.02.88-.43,1.84-.21,2.55.43s.99,1.64.77,2.56c-.21.87-.87,1.69-1.8,1.82-1,.14-1.95-.46-2.28-1.41-.3-.86-.43-2.06.19-2.81.47-.57,1.28-.32,1.77.11.69.61.74,1.65.38,2.45-.09.2-.2.38-.34.55-.03.03-.22.2-.22.23l.16-.04c.17,0,.2-.03.11-.09-.01-.05-.09-.12-.12-.16-.28-.48-.52-1.03-.6-1.59-.07-.47-.01-.98.25-1.39.06-.09.12-.18.2-.25.03-.03.09-.06.12-.09.13-.19-.3.13-.27.04,0,.03.2.29.22.33.08.14.15.29.21.44.19.48.28,1.03.08,1.52-.1.25-.37.68-.7.59-.43-.12-.68-.58-.83-.97-.18-.46-.34-.97-.36-1.46,0-.29.08-.82.41-.89s.78.22,1,.45c.33.36.5.84.6,1.32.08.41.21.96.07,1.37-.01.03-.04.08-.05.11h0c-.08.14.04.1.37-.08-.03-.06-.19-.15-.24-.22-.16-.21-.26-.5-.34-.75s-.15-.54-.18-.81c-.02-.12-.04-.26-.02-.39,0-.02.05-.16.05-.15l-.32.1s.06.01.09.02c.08.08.17.11.24.21s.11.2.15.3c.03.07.19.48.12.52l.33-.15h-.05c.12,0,.24,0,.36-.02-.14-.02-.31-.18-.42-.26-.13-.1-.26-.21-.38-.33-.24-.24-.44-.52-.6-.83-.15-.29-1.08.04-.97.26.33.63.86,1.25,1.52,1.55.31.14.75.06,1.01-.16s.16-.54.06-.81-.24-.53-.5-.67c-.33-.18-.77-.14-1.11,0-.29.12-.53.31-.56.64-.03.39.07.82.19,1.18.1.31.22.63.42.89.25.33.64.39,1.03.3.72-.18.86-.72.79-1.38s-.2-1.39-.62-1.96c-.37-.5-.96-.74-1.57-.74s-1.34.24-1.66.79c-.37.63-.13,1.43.09,2.07.19.58.51,1.19,1.13,1.38s1.44-.06,1.93-.51c.52-.48.68-1.16.54-1.84-.08-.38-.25-.74-.45-1.07-.23-.37-.51-.47-.94-.35-.68.18-1.2.75-1.37,1.43-.19.74.04,1.5.36,2.17.12.25.25.59.49.74.36.23.89.06,1.21-.16.52-.36.88-.99,1.01-1.6.26-1.25-.44-2.4-1.7-2.66s-2.69.45-2.93,1.8c-.12.66-.03,1.39.19,2.03.24.69.75,1.2,1.43,1.45,1.32.49,3,.03,3.93-1.01s.97-2.62.12-3.69c-.94-1.18-2.55-1.35-3.89-.83-.34.13-.66.3-.96.5-.32.21-.66.44-.85.8-.31.59-.14,1.37.13,1.94.56,1.21,1.78,1.93,3.11,1.81,1.25-.12,2.61-.9,2.88-2.22s-.53-2.65-1.76-3.17c-.66-.28-1.39-.34-2.1-.25-.64.08-1.63.31-1.81,1.04s.46,1.28,1,1.66c.17.12.45.05.63-.02.07-.03.44-.22.27-.34h0Z"/><path class="cls-22" d="M72.73,111.47c-1.83-.6-3.32-2.29-2.92-4.31.46-2.32,3.15-2.6,4.99-1.82s3.15,2.67,3.5,4.68c.09.49.16,1.03.06,1.53-.11.58-.53.85-1.02,1.09-.98.49-2.06.93-3.17.91-.97-.02-1.97-.41-2.56-1.2-.62-.84-.7-1.94-.67-2.95.02-.49.03-1,.14-1.47.14-.59.56-.95,1.08-1.22.78-.4,1.69-.51,2.55-.36,1.84.31,3.6,1.94,3.42,3.93-.16,1.78-2.09,2.69-3.71,2.34-1.78-.39-3.35-2.16-3.02-4.04.15-.86.69-1.71,1.47-2.12.91-.48,2.01-.11,2.82.42,1.59,1.03,2.49,3.2,1.36,4.9s-3.67,1.1-4.8-.34c-.98-1.26-2.02-4.67.4-4.96,1.87-.22,3.86,1.19,4.39,2.97.21.7.27,1.75-.39,2.25-.76.58-2.08.15-2.8-.28-.79-.48-1.45-1.22-1.74-2.11-.19-.59-.28-1.83.45-2.14.46-.19,1.03.21,1.37.49.4.33.73.75,1,1.19s.47.94.58,1.45c.07.34.19,1.19-.3,1.27-.45.07-.84-.46-1.03-.79-.29-.49-.47-1.07-.59-1.62-.1-.45-.2-.99-.08-1.45.2-.73.88-.42,1.26-.02.73.77,1.09,1.99,1.12,3.03,0,.27-.06.55-.04.81,0,0-.05.27.04.21-.04.03-.24-.2-.27-.23-.35-.4-.52-1.01-.63-1.52-.12-.54-.15-1.09-.09-1.64.02-.19.04-.41.14-.58.05-.08.06-.13.11-.12.08.01.22.21.26.27.29.4.43.95.53,1.42.06.27.1.55.05.82-.02.12-.06.24-.12.34-.04.07-.08.13-.14.18-.05.08-.09.06-.12-.04-.17-.1-.25-.5-.31-.68-.09-.27-.16-.55-.22-.83s-.1-.56-.12-.85c0-.12-.02-.24,0-.36.03-.3.15-.17-.24-.17l-.31-.21c.19.46.3.95.25,1.46-.02.2-.07.38-.17.55-.05.1.03.08-.03.04-.09-.06-.14-.1-.12-.23.06-.47-.93-.33-.98.08-.11.92,1.16.99,1.71.58.82-.61.64-1.93.3-2.75-.05-.13-.17-.2-.31-.21-1.63-.03-1.03,2.21-.73,3.14.18.54.42,1.12,1.07,1.18.6.05,1.16-.35,1.42-.87.33-.66.12-1.45-.1-2.11-.17-.53-.43-1.15-.97-1.39s-1.16-.04-1.5.41c-.37.48-.39,1.21-.37,1.79.04,1.04.41,3.14,1.77,3.23,1.64.1,1.26-2.37.97-3.33-.36-1.19-1.19-2.65-2.63-2.53-.62.05-1.19.4-1.41.99s-.09,1.38.06,2c.28,1.17.95,2.75,2.4,2.67.6-.03,1.17-.36,1.39-.95s.06-1.27-.14-1.84c-.44-1.22-1.42-2.59-2.74-2.94-1.19-.31-2.3.41-2.53,1.6-.49,2.58,2.39,4.64,4.72,4.49,1.29-.08,2.33-.92,2.39-2.25.05-1.25-.61-2.41-1.51-3.23s-2.2-1.36-3.48-1.34-2.68.63-2.92,2.03c-.44,2.61,1.5,5.53,4.22,5.7,1.28.08,2.6-.39,3.37-1.45s.89-2.39.43-3.54c-.95-2.4-4.25-3.95-6.45-2.2-.93.74-1.52,1.92-1.44,3.12.09,1.27.87,2.4,1.91,3.1,1.93,1.31,5.01,1.05,6.35-1.01,1.55-2.39-.72-5.19-3.09-5.76-1.21-.29-2.5-.2-3.63.32-.56.25-1.13.61-1.48,1.13-.42.61-.44,1.4-.47,2.11-.06,1.36.07,2.86,1.12,3.84.96.89,2.35,1.17,3.63,1.01.77-.1,1.51-.33,2.22-.63.64-.27,1.36-.56,1.86-1.05.96-.95.59-2.69.2-3.82-.91-2.67-3.44-4.6-6.32-4.41-1.37.09-2.78.7-3.47,1.94-.63,1.13-.56,2.54.06,3.65s1.72,1.85,2.9,2.24c.39.13,1.14-.44.56-.62h0Z"/><path class="cls-22" d="M84.44,121.18c-.69-.74-.72-2.1.16-2.71s1.82.24,2.19.99c.22.45.35.94.39,1.44s.04,1.13-.33,1.51c-.41.41-1.23.41-1.76.34-.6-.08-1.18-.31-1.59-.77-.69-.76-.99-2.11-.74-3.11.11-.44.38-.94.87-1.04s1.05.07,1.5.25c.99.41,1.9,1.21,2.2,2.28.28.99.02,2.23-.91,2.78s-2.29.42-3.09-.25-1.18-1.75-.93-2.75c.23-.91.99-1.81,1.95-1.98,1.03-.18,2.12.41,2.76,1.19.71.86,1.01,2.28.32,3.24-.25.35-.65.69-1.11.65-.54-.04-1.03-.45-1.34-.87-.59-.81-.67-2.15.23-2.77s1.83.53,2.12,1.28c.18.48.2,1.15-.3,1.45-.42.25-1.03-.07-1.34-.37-.39-.37-.6-.97-.5-1.51,0-.05.04-.13.05-.18l.06-.1-.34.12s.24.16.26.19c.19.25.13.61.06.89-.03.12-.06.24-.11.36,0,.02-.17.32-.17.32l.19-.04c.21,0,.25-.02.13-.08-.01-.03-.1-.12-.11-.14-.07-.13-.11-.28-.14-.43-.15-.64-.25-1.32-.23-1.98,0-.11.01-.22.04-.33s.1-.21.13-.31c.03-.13-.3,0-.23.13.03.05.12.11.16.16.09.11.16.24.22.36.22.44.36.94.36,1.44,0,.38-.12,1.04-.51,1.22l.49-.13c.08,0-.1-.24-.13-.29-.05-.09-.09-.18-.12-.27-.07-.2-.12-.41-.15-.62-.02-.23-.02-.45.02-.68.02-.1.04-.19.07-.29.02-.06.04-.12.07-.19.05-.08.04-.08-.02-.03l-.49.13c.05,0,.26.27.3.31.11.13.2.27.27.43.13.29.19.6.19.91l.97-.26c-.18-.6-.29-1.22-.33-1.85-.01-.25-.97-.06-.97.26,0,.15,0,.3,0,.44,0,.23.97.07.97-.26,0-.15,0-.3,0-.44l-.97.26c.04.63.15,1.25.33,1.85.09.29.97.03.97-.26,0-.41-.11-.81-.33-1.16-.2-.32-.49-.69-.9-.7s-.81.17-.97.56-.2.81-.15,1.22.19.81.42,1.15c.26.39.8.26,1.15.05.6-.37.81-1.12.77-1.79-.04-.63-.31-1.62-.9-1.95-.35-.2-.84-.1-1.18.09-.3.17-.46.48-.5.82-.05.42,0,.86.04,1.28.05.44.1.96.29,1.37.36.77,1.47.41,1.81-.21.31-.57.51-1.6-.23-1.92-.35-.15-.8-.08-1.13.1-.36.2-.46.55-.46.93-.01,1.87,2.35,2.45,3.65,1.44s0-3.21-1.4-3.41c-1.51-.21-3.09.98-2.87,2.58.11.78.6,1.49,1.28,1.88.73.42,1.62.34,2.37,0s1.28-.92,1.47-1.69c.21-.84,0-1.73-.47-2.44-.89-1.35-2.62-1.91-4.16-1.49-1.45.4-2.74,1.64-2.72,3.22.01.73.33,1.45.82,1.98.55.59,1.3.87,2.09.91,1.62.09,3.62-.51,4.05-2.29.39-1.6-.62-3.05-1.99-3.78s-3.5-.86-4.34.67c-.36.67-.33,1.51-.16,2.23.18.79.58,1.58,1.29,2.01.79.47,1.79.56,2.69.43.81-.11,1.82-.4,2.19-1.21.31-.66.19-1.56-.02-2.23s-.6-1.3-1.21-1.65c-1.29-.74-3.39-.04-3.76,1.46-.17.7.02,1.44.52,1.97.2.21,1.11-.14.9-.35h0Z"/><path class="cls-22" d="M89.84,108.32c-.51-.22-.57-.93-.32-1.37.35-.6,1.2-.39,1.72-.16,1.28.57,2.17,1.94,1.8,3.35-.18.69-.63,1.27-1.32,1.5-.76.26-1.69.29-2.44-.01-1.3-.54-2-2.07-1.88-3.42.06-.71.33-1.44.88-1.91s1.35-.66,2.08-.7c1.54-.09,3.02.71,3.48,2.24.22.74.15,1.56-.2,2.26s-.99,1.19-1.69,1.55c-.66.34-1.49.78-2.26.58-.84-.22-1.1-1.08-1.37-1.8-.3-.8-.56-1.66-.38-2.52.17-.77.69-1.27,1.39-1.59s1.42-.41,2.14-.06c.59.29,1.08.79,1.42,1.35.37.59.61,1.34.6,2.04-.02.81-.51,1.31-1.23,1.61-.6.25-1.3.45-1.95.35-.77-.12-1.23-.71-1.43-1.43-.26-.97-.41-3.31,1.16-3.15,1.39.14,1.95,1.84,1.66,3.03-.06.24-.2.71-.45.81-.19.08-.52-.24-.67-.43-.48-.61-.66-1.53-.68-2.29,0-.18,0-.36.04-.54.03-.14.14-.28.16-.41l.07-.08c-.27-.04-.35-.01-.25.08.01.06.1.15.13.22.08.19.13.39.18.59.16.75.1,1.53-.17,2.25-.02.05-.29.57-.29.58l.13-.04c.13,0,.16-.04.1-.14,0-.07-.04-.21-.05-.28-.08-.47-.13-.96-.14-1.44,0-.39,0-.81.07-1.2.02-.08.04-.16.07-.24.01-.04.1-.11.03-.09.14-.04.41.22.5.31.52.49.78,1.26.67,1.96-.05.33-.18.64-.37.91-.12.17-.51.67-.76.65.23.02.06-.3.04-.42-.04-.2-.07-.41-.1-.62-.05-.46-.06-.93-.02-1.39.01-.17.05-.33.09-.5.04-.18.1-.11-.02-.1.06,0,.17.05.23.08.36.15.68.41.95.68.43.44.86,1.05.87,1.69,0,.14-.01.32-.09.45-.06.11-.07.09-.19.02-.33-.18-.62-.3-.89-.58-.46-.48-.77-1.08-1.06-1.67-.16-.33-1.1-.02-.97.26.4.82.85,1.68,1.63,2.19.71.47,2.05.61,2.45-.35.34-.82-.28-1.78-.82-2.35-.65-.68-1.72-1.33-2.64-.74-.46.29-.51.81-.53,1.31-.03.58,0,1.16.11,1.73.09.52.23.91.84.83.48-.06.96-.35,1.31-.67.71-.63,1.06-1.58.85-2.52s-.95-1.81-1.94-1.74c-.47.03-.94.27-1.13.72-.21.48-.16,1.11-.15,1.62.01.58.03,1.27.22,1.83.17.5.8.42,1.17.21.87-.48,1.08-1.85,1.05-2.74-.02-.5-.1-1.06-.35-1.5s-.79-.42-1.21-.23c-1,.47-.87,1.8-.65,2.69s.7,1.94,1.73,1.98c2.2.09,2.38-2.95,1.21-4.21-1.28-1.38-3.92-.75-4.22,1.16-.14.9-.05,2.03.45,2.82.55.87,1.59,1.05,2.55.95s2.05-.44,2.82-1.03c.86-.66.98-1.68.71-2.68-.52-1.89-2.26-3.28-4.26-2.87-.99.21-2.16.73-2.73,1.61-.62.96-.45,2.17-.1,3.19s.71,2.12,1.87,2.39,2.25-.23,3.23-.71,1.85-1.11,2.3-2.11.41-2.09-.11-3.02c-1.08-1.94-3.61-2.18-5.54-1.55-.99.32-1.86.92-2.28,1.9-.39.9-.37,1.98-.01,2.88s1,1.63,1.88,1.97c1.04.41,2.29.32,3.34-.02.96-.31,1.73-.95,2.04-1.93.29-.91.1-1.87-.45-2.64s-1.46-1.34-2.41-1.48c-.88-.13-2.07.09-2.53.95-.33.62-.2,1.48.49,1.78.21.09.5.03.68-.09.12-.08.3-.28.09-.37h0Z"/><path class="cls-22" d="M81.75,100.21c-.23-.82.17-1.72.91-2.14.77-.44,1.73.02,2.29.59.64.64,1.16,1.82.65,2.68s-1.83,1.01-2.71.81c-.97-.23-1.81-.93-2.25-1.82-.22-.43-.38-.95-.36-1.44.02-.58.39-.93.85-1.23.75-.49,1.69-.76,2.58-.53.98.25,1.65,1.1,1.92,2.05.14.5.24,1.12-.04,1.59-.23.38-.65.55-1.07.66-.91.24-2.29.41-2.99-.38-.58-.65-.63-1.64-.47-2.45s.55-1.7,1.48-1.83c2.02-.28,3.06,1.96,3.19,3.62.02.24.04.5,0,.74-.05.22-.16.27-.36.31-.45.08-.94.08-1.39.02-.92-.12-1.79-.61-2.08-1.53-.25-.78-.08-1.79.59-2.33.41-.33.84-.06,1.13.3.35.43.45,1.02.53,1.56.04.27.08.55.05.82-.02.2-.08.58-.28.7-.1.06-.24-.04-.35-.15-.22-.19-.32-.47-.4-.75-.06-.24-.11-.49-.13-.74-.01-.13-.01-.3.04-.42,0,0,.06-.11.06-.11.06-.06.01-.04-.16.07l.04.07c.02.18.13.37.16.56.03.22.01.45-.04.67-.09.39-.29.77-.63,1l.79.03c-.13-.55-.16-1.11-.07-1.67.04-.23.08-.47.16-.68.02-.06.04-.11.07-.17-.26,0-.34.03-.23.09,0,.04.16.2.18.27.16.41.22.92.28,1.35.03.19.04.39,0,.58,0,0-.08.21-.08.2-.04.04,0,.03.13-.03-.04,0-.08-.01-.11-.03-.14-.1-.25-.14-.36-.28s-.18-.31-.24-.48c-.11-.33-.16-.7-.16-1.06,0-.08,0-.15.02-.23,0-.05.02-.09.04-.13-.45-.01-.58.05-.41.2.08.15.19.27.24.44.1.37.05.81-.22,1.1-.14.15-.1.31.1.37s.54-.02.68-.18c.35-.38.52-.87.44-1.39-.07-.46-.4-1-.91-1.01-1.25-.02-1.04,1.59-.7,2.36.2.44.53.77,1.02.87.52.1,1.18-.11,1.42-.61s.06-1.08-.04-1.58-.16-1.14-.75-1.31c-.32-.1-.71-.02-.98.17s-.38.5-.46.82c-.2.74-.2,1.53-.02,2.28.07.3.64.14.79.03.89-.63,1.44-2.04.75-3.03-.39-.56-1.43-.13-1.69.37-.29.56-.05,1.5.24,2.02.34.61,1.02.84,1.68.64s1.07-.83,1.08-1.52c.02-1.29-.43-3.13-2.02-3.16-1.36-.03-2.35,1.29-2.34,2.56s.92,2.21,2.13,2.53c.63.16,1.29.18,1.93.13s1.47-.18,1.75-.82c.13-.28.1-.61.09-.91-.01-.32-.05-.65-.12-.97-.13-.65-.39-1.29-.78-1.83-.72-.99-1.93-1.5-3.15-1.34-.6.08-1.19.31-1.65.71-.5.44-.76,1.08-.9,1.73-.23,1.07-.1,2.42.86,3.11.6.43,1.39.47,2.11.45s1.51-.15,2.21-.43c.61-.25,1.19-.68,1.38-1.34s.02-1.39-.24-1.97c-.54-1.25-1.71-2-3.07-1.99-.7,0-1.4.17-2.05.45-.61.27-1.26.65-1.67,1.19-.83,1.08-.01,2.76.83,3.58,1.02,1,2.48,1.32,3.85,1.03.69-.15,1.42-.46,1.91-.97s.62-1.23.48-1.92c-.26-1.22-1.32-2.25-2.55-2.47s-2.59.36-3.18,1.5c-.26.5-.35,1.06-.19,1.6.1.36,1.07.1.97-.26h0Z"/><path class="cls-22" d="M97.6,120c-.14.09-.56-.15-.69-.24-.27-.18-.47-.45-.63-.73-.29-.54-.48-1.17-.58-1.77-.11-.64-.11-1.36.34-1.87.39-.45.99-.57,1.55-.63,1.29-.13,2.66.18,3.65,1.05.89.77,1.46,2.02,1.25,3.2s-1.15,2.23-2.32,2.46c-1.3.26-2.91-.24-3.63-1.4-.67-1.09-.95-2.44-.33-3.6.54-1.01,1.55-1.73,2.71-1.53s2.19.97,2.73,2,.61,2.38-.14,3.29c-.8.96-2.2.66-3.12.05s-1.61-1.69-1.54-2.83c.04-.64.38-1.28,1.04-1.47.51-.14,1.11.01,1.57.24,1,.48,1.73,1.47,1.71,2.61,0,.58-.23,1.22-.71,1.57s-1.12.14-1.57-.13c-.99-.59-1.81-2.02-1.45-3.19.17-.54.58-.9,1.15-.91s1.24.18,1.71.53c.91.67,1.01,2.15.17,2.91-.94.86-2.27-.09-2.66-1.06-.2-.5-.29-1.17-.02-1.66.1-.18.12-.13,0-.12.06,0,.17.06.23.1.11.06.22.15.31.23.25.24.42.54.56.86.26.62.34,1.29.26,1.95l.97-.26c-.21-1-.36-2.01-.43-3.03l-.97.26c.25.34.38.75.36,1.17,0,.24-.07.48-.17.7-.04.09-.09.17-.14.25s-.21.19-.24.28c-.13.11-.02.1.34-.04-.06-.05-.1-.12-.12-.19-.05-.11-.07-.24-.1-.36-.08-.29-.14-.59-.19-.88s-.08-.6-.1-.9c0-.1-.02-.21,0-.32.04-.35.26-.3-.29-.23.18-.02.54-.06.65-.23.1-.16-.09-.19-.23-.17-.34.04-.74.13-.95.43-.19.28-.15.67-.12.99.04.48.12.97.24,1.44.08.34.14.76.54.83.7.12,1.41-.46,1.68-1.07.29-.64.24-1.4-.18-1.97-.14-.19-.98,0-.97.26.07,1.02.22,2.03.43,3.03.05.24.94-.03.97-.26.19-1.48-.68-3.91-2.58-3.16-1.59.63-.77,2.93.39,3.56s3.17.2,3.84-1.04c.32-.6.34-1.38.02-1.98-.35-.68-1.08-1.03-1.8-1.18-1.34-.28-3.38.13-3.57,1.76s1.11,3.19,2.65,3.35,3.09-.79,3.08-2.44c-.01-1.47-1.26-2.67-2.66-2.93s-3.43.34-3.59,2c-.15,1.55,1.04,2.93,2.43,3.44s3.27.21,4.18-1,.55-3-.4-4.11c-1.03-1.19-2.65-1.67-4.16-1.29s-2.77,1.48-3.02,3c-.14.87.13,1.77.56,2.53s1.06,1.24,1.88,1.51c1.59.53,3.52.26,4.83-.8s1.66-2.69.93-4.15-2.37-2.29-4.02-2.38c-1.37-.08-3.6.15-4.26,1.6-.35.76-.14,1.66.1,2.42s.56,1.52,1.29,1.88c.68.33,1.49.2,2.11-.18.17-.11.1-.19-.06-.22-.21-.04-.51.07-.68.18h0Z"/><path class="cls-22" d="M69.98,130.7c-.61.23-1.23-.53-1.43-1.01-.27-.63-.37-1.46-.15-2.12.38-1.15,1.89-1.64,2.99-1.69,1.18-.05,2.33.44,2.97,1.46s.97,2.98,0,3.91c-.44.42-1.07.56-1.66.63-.73.08-1.47.05-2.19-.12-.65-.16-1.4-.45-1.82-1s-.48-1.29-.4-1.93c.14-1.18.88-2.35,2.07-2.71s2.54.13,3.25,1.16.78,2.38.11,3.39c-.63.95-1.85,1.44-2.93,1.03s-1.92-1.68-1.79-2.88c.07-.68.42-1.26.98-1.65.26-.18.55-.33.84-.43.2-.07.29-.08.48.02.18.1.35.23.5.36.48.42.89.95,1.14,1.53s.49,1.31.25,1.92-1.01.59-1.56.5c-.68-.11-1.25-.48-1.52-1.12-.24-.57-.31-1.25-.23-1.87.06-.47.26-1.15.79-1.3.59-.16,1.23.32,1.57.75.41.53.61,1.2.74,1.84.05.25.08.51.05.77-.01.12-.04.24-.09.35-.07.15-.1.16-.24.13-.56-.1-.93-.81-1.07-1.29-.16-.56-.17-1.16-.09-1.74.04-.26.1-.54.26-.76.03-.04.06-.1.11-.13.02-.01-.05-.01.01.07.11.14.23.23.33.39.64,1.09.52,2.89-.79,3.44-.13.05-.22.11-.31,0-.08-.09-.07-.38-.09-.49-.05-.41-.05-.83-.02-1.24.02-.29.06-.61.21-.86.06-.11.08-.15.18-.15.17.01.35.23.44.35.19.22.31.49.38.77.03.15.06.29.05.44,0,.07-.03.14-.03.2-.01.11-.15.15.04.13l.32.05c-.21-.1-.26-.74-.3-.95-.07-.4-.1-.79-.08-1.19l-.93.25c.36.49.49,1.07.39,1.67-.07.43.91.28.97-.1.12-.71-.04-1.39-.47-1.97-.18-.25-.92-.08-.93.25-.02.55.02,1.1.15,1.64.11.46.2.99.78.98,1-.03,1.23-1.14.94-1.91-.31-.83-1.09-1.47-2-1.17-.97.31-1.1,1.38-1.1,2.26,0,.43-.05,1.1.21,1.46s.79.31,1.17.21c.84-.22,1.59-.84,1.94-1.64.39-.9.27-1.94-.21-2.78-.21-.37-.51-.67-.95-.72s-.9.14-1.19.47c-.53.6-.56,1.54-.49,2.3s.37,1.58,1.03,2.06c.7.51,1.86.47,2.29-.38.36-.72.09-1.68-.17-2.39-.32-.86-.88-1.61-1.76-1.91-.84-.29-1.84-.09-2.44.58-.57.64-.65,1.56-.56,2.38.1.93.51,1.79,1.4,2.2.8.37,1.84.43,2.67.15.93-.32,1.38-1.09,1.27-2.05-.11-.91-.59-1.81-1.21-2.47-.3-.33-.67-.65-1.07-.86-.47-.24-.96-.16-1.43.02-.9.34-1.82.9-2.25,1.8-.38.81-.36,1.76.03,2.56.79,1.62,2.64,2.28,4.31,1.7s2.77-2.15,2.46-3.93c-.32-1.88-2.02-3.03-3.86-2.96s-3.44,1.35-3.84,3.16c-.19.85-.12,1.9.42,2.62.58.76,1.68,1.12,2.58,1.28,1.67.29,4.29.17,5.2-1.55.47-.88.4-2.05.11-2.98-.27-.86-.81-1.61-1.59-2.07-1.46-.86-3.42-.71-4.9.02-.82.41-1.58,1.01-1.82,1.94s-.03,2.08.57,2.81,1.56.9,2.42.58c.16-.06.37-.26.24-.44-.14-.19-.48-.1-.65-.04h0Z"/><path class="cls-22" d="M86.31,136.04c-1.5-.42-1.89-2.72-.95-3.83.59-.7,1.8-.73,2.63-.6.88.15,1.7.59,2.22,1.32.49.69.7,1.61.41,2.43s-1.03,1.43-1.81,1.77c-1.38.59-3.12.35-4.23-.68-1.25-1.17-2.14-3.78-.65-5.09,1.37-1.21,3.74-.56,5.11.35s2.2,2.51,1.82,4.17c-.17.73-.57,1.43-1.22,1.81-.85.5-2.01.6-2.96.45-.89-.14-1.73-.55-2.35-1.21s-.91-1.53-.99-2.43c-.04-.42-.02-.87.15-1.26.23-.51.72-.85,1.19-1.13.8-.49,1.72-.77,2.65-.84s1.89.19,2.52.97c.55.67.78,1.56.64,2.41-.29,1.87-1.99,3.18-3.84,3.31-1.01.07-1.57-1.03-1.84-1.85-.25-.76-.59-1.96-.17-2.7s1.52-.71,2.23-.51c.87.25,1.57.92,1.79,1.8.19.79-.05,1.76-.86,2.11s-1.51-.43-1.8-1.08c-.32-.7-.36-1.51-.13-2.24.18-.56.87-1.72,1.55-1.07.64.62.84,1.88.71,2.71-.07.43-.23.84-.5,1.18-.25.32-.68.73-1.07.42-.64-.5-.75-1.49-.75-2.24,0-.6-.09-1.88.74-1.97s1.43.73,1.71,1.39c.17.4.3.83.35,1.26.04.27.05.55-.03.82-.05.16-.17.51-.37.55-.32.08-.57-.46-.65-.69-.14-.4-.17-.85-.16-1.27,0-.47.08-.96.26-1.39.02-.05.11-.18.13-.25l.09-.1c-.21.03-.28.11-.19.25,0,.18.09.38.09.56,0,.4-.1.83-.3,1.18-.1.17-.21.33-.35.47-.05.05-.11.11-.17.15-.07.06-.3.11-.12.1l.32.04c-.21-.11-.08-.9-.07-1.08.04-.37.11-.73.22-1.09.06-.2.22-.86.5-.75.2.08.23.68.25.83.04.31.07.62.05.93-.01.16-.04.32-.08.48-.03.11-.15.26-.15.36-.11.11-.08.15.1.13-.04-.04-.08-.08-.11-.12-.05-.07-.11-.14-.16-.22-.14-.2-.28-.37-.49-.5-.27-.17-1.16.23-.77.47s.47.78.94.91c.6.16,1.18-.25,1.45-.76s.28-1.13.22-1.7-.11-1.27-.75-1.43c-1.53-.38-2.1,1.5-2.19,2.63-.04.49-.18,1.41.53,1.4.58,0,1.12-.45,1.47-.88s.58-.98.62-1.54c.03-.47,0-1.21-.56-1.34s-1.15.26-1.4.75c-.3.59-.36,1.3-.34,1.95.02.55.09,1.17.46,1.61s.95.52,1.48.36c1.49-.45,1.36-2.09.89-3.26-.43-1.09-1.31-1.91-2.54-1.79-.53.05-1.09.26-1.45.67-.41.47-.41,1.13-.43,1.72-.04,1,.09,2.63,1.24,3.01s2.46-.78,2.85-1.79c.26-.66.24-1.42.07-2.11-.14-.56-.38-1.23-.86-1.58-.98-.71-2.42.15-2.95,1.04-1.15,1.96.16,5.24,2.76,4.37,1.17-.39,1.94-1.49,1.7-2.73s-1.4-2.11-2.64-2.29c-1.11-.16-2.72.05-3.3,1.16-.3.58-.22,1.26-.11,1.88.11.66.29,1.32.63,1.9.29.52.7,1.02,1.29,1.21.66.21,1.44.05,2.09-.12,1.28-.34,2.51-1.07,3.24-2.2.68-1.06.89-2.43.33-3.58-.61-1.24-1.8-1.82-3.15-1.82s-2.81.41-4,1.15c-.56.35-1.15.77-1.44,1.38s-.26,1.29-.15,1.93c.23,1.31.96,2.37,2.14,3,1.28.69,2.83.71,4.21.39,1.22-.28,2.3-.94,2.82-2.12.45-1.01.44-2.24-.04-3.24-1.12-2.36-4.29-3.47-6.74-2.85-1.2.31-2.38,1.17-2.61,2.45s.4,2.97,1.34,3.92c1.64,1.67,4.52,1.62,6.41.42,1.06-.68,1.89-1.76,1.74-3.07-.14-1.25-1.06-2.27-2.21-2.72-1.23-.48-2.77-.47-3.99.07s-1.75,1.67-1.6,2.92c.12,1.05.78,1.96,1.81,2.24.31.09,1.13-.38.59-.53h0Z"/><path class="cls-22" d="M73.96,140.11c.64.21,1.27.47,1.86.8l-.03-.42c-.73.94-2,.71-2.8,0-.42-.37-.76-.87-.91-1.41-.12-.44-.16-1.1.27-1.39s1.21-.17,1.69-.01c.58.19,1.1.55,1.47,1.03s.6,1.08.66,1.69c.05.51.03,1.4-.46,1.71-.19.12-.45.16-.67.19-.34.05-.68.1-1.02.11-.64.02-1.18-.21-1.56-.74-.64-.88-1.12-2.5-.08-3.25.85-.61,2.09-.48,2.98-.02,1.02.52,1.7,1.55,1.55,2.71-.06.5-.28.99-.68,1.31-.46.36-1.06.43-1.63.42s-1.23-.06-1.8-.19c-.63-.15-.99-.52-1.17-1.13s-.37-1.4-.12-2.03c.21-.52.68-.91,1.2-1.11,1.07-.41,2.35-.06,3.09.81.38.44.62.98.72,1.56s.06,1.27-.3,1.74c-.3.38-.81.48-1.27.52-.51.04-1.25.13-1.71-.14-.5-.3-.68-1.08-.72-1.62-.05-.6.08-1.22.36-1.75.23-.44.65-1.02,1.19-1.05s.91.48,1.13.89c.29.53.43,1.2.39,1.81-.03.54-.26,1.23-.83,1.42-.51.17-.97-.34-1.17-.76-.27-.56-.34-1.29-.32-1.9,0-.13,0-.51.15-.57.13-.06.39.17.46.25.39.45.31,1.25.24,1.79-.02.17-.08.26-.15.41.05-.11.11.07.05-.13-.11-.33-.19-.68-.24-1.03-.03-.2-.05-.4-.07-.6,0-.14.02-.31,0-.45v-.04c-.34,0-.43.05-.26.14.02.04.08.09.11.13.08.11.12.24.15.38.11.44.09,1.02-.32,1.3l.8.09c-.28-.95-.3-1.92-.08-2.88l-.93.25c.62.97.84,2.14.64,3.27l.93-.25c-.57-.65-1.14-1.3-1.72-1.95-.29-.32-1.2.06-.88.42.57.65,1.14,1.3,1.72,1.95.24.28.87.12.93-.25.22-1.26-.05-2.54-.73-3.62-.22-.34-.86-.07-.93.25-.24,1.01-.21,2.06.09,3.06.1.34.6.23.8.09.63-.42.81-1.2.66-1.91-.07-.36-.25-.72-.57-.93-.37-.23-.89-.17-1.19.14s-.22.8-.19,1.2c.04.48.12.99.28,1.45.31.88,1.51.7,1.9-.03.2-.36.2-.82.2-1.22,0-.43-.03-.85-.23-1.24-.37-.7-1.31-.95-1.99-.56-.8.45-.65,1.47-.56,2.24.1.82.42,1.67,1.2,2.06s1.7.13,2.31-.45c.66-.63.78-1.57.64-2.44-.12-.76-.43-1.53-1.03-2.04-.64-.55-1.56-.54-2.28-.14-1.47.83-2.05,2.85-1.45,4.39.15.38.37.76.73.99s.82.29,1.25.3c.81.02,1.63,0,2.39-.31,1.65-.69,1.68-2.8.89-4.16-.87-1.48-2.74-2.07-4.35-1.57-.79.24-1.54.73-1.96,1.46-.46.8-.28,1.79-.04,2.63s.84,1.36,1.71,1.55c.81.18,1.71.26,2.54.2s1.7-.34,2.29-.98c.5-.54.74-1.3.7-2.02-.08-1.68-1.49-2.81-3.06-3.13-1.38-.28-3.37.13-3.92,1.61-.32.85-.03,1.82.36,2.61s1.02,1.32,1.9,1.46c.45.07.91.04,1.36-.02.42-.05.84-.1,1.24-.24.92-.32,1.31-1.12,1.36-2.05.08-1.73-1.04-3.29-2.7-3.77-.83-.24-1.85-.27-2.61.18-.7.41-.93,1.19-.79,1.96.29,1.57,1.87,2.8,3.45,2.7.8-.05,1.59-.41,2.08-1.05.09-.12.13-.33-.03-.42-.66-.36-1.34-.66-2.05-.89-.23-.07-.53,0-.68.18-.14.17-.09.39.12.46h0Z"/><path class="cls-22" d="M61.53,137.5c.45-.41.98-.96,1.6-1.09.54-.11,1.15.16,1.4.65.2.4.24,1.16-.29,1.33s-1.24.11-1.75-.12c-.53-.25-.9-.75-.96-1.33-.05-.53.24-1.03.77-1.16,1-.23,2.16.39,2.76,1.17.33.43.62,1.11.49,1.66-.11.5-.64.86-1.12.97-1.04.24-2.17-.39-2.53-1.38-.18-.49-.2-1.04-.04-1.54.13-.4.44-.96.9-1.06.6-.13,1.25.59,1.52,1.04.33.55.46,1.25.17,1.85-.1.2-.3.51-.53.58-.25.08-.68-.17-.88-.3-.57-.37-.96-1.06-.7-1.74.06-.16.15-.26.26-.39.02-.02.05-.03.07-.05-.05.05-.11,0,.03.02.31.05.58.19.81.41.53.53.61,1.37.59,2.08l.94-.3c-.62-.34-1.06-.89-1.28-1.56-.08-.24-1.03.02-.97.26.14.48,0,.98-.37,1.3l.92-.16c-.14-.47-.22-1.01-.13-1.5.02-.09.06-.16.08-.24.04-.13.34-.15-.24.01-.37.1-.34.02-.22.16.17.21.3.46.45.68.16.25,1.06-.11.97-.26-.12-.19-.24-.38-.37-.57-.08-.12-.15-.25-.27-.31-.32-.16-.87,0-1.12.24-.23.22-.26.53-.27.83-.02.41.04.81.16,1.2.04.12.32.08.4.07.19-.03.38-.1.52-.22.43-.37.62-.96.46-1.51l-.97.26c.22.7.7,1.28,1.34,1.64.2.11.93,0,.94-.3.02-.81-.11-1.76-.8-2.29s-1.69-.47-2.37,0-.77,1.36-.32,2.01c.49.71,1.41,1.05,2.25.89s1.59-.73,1.73-1.59-.3-1.71-.95-2.25c-.75-.61-1.77-.54-2.59-.1-.64.35-1.08.96-1.19,1.68-.1.68.06,1.37.49,1.91.47.59,1.22.88,1.95.92.84.05,1.73-.17,2.44-.63.33-.21.66-.5.79-.88s.04-.8-.09-1.15c-.5-1.39-2.06-2.16-3.49-2.05-.79.07-1.87.35-2.24,1.14-.31.65,0,1.47.52,1.9.69.57,1.68.59,2.52.48.77-.1,1.82-.4,1.91-1.32.08-.78-.52-1.38-1.25-1.53-.93-.18-1.92.16-2.68.68-.37.25-.71.56-1.04.86-.17.15.15.19.24.18.22-.01.48-.09.64-.24h0Z"/><path class="cls-22" d="M94.82,100.75s.09-.1.09-.1c0-.08-.13.1-.16.05.01.02.17.04.2.05.23.11.4.33.51.55.09.2.18.44.17.66,0,.06-.01.13-.04.19,0,0-.05.11-.06.09,0-.14.34,0,.2-.07-.06-.03-.13-.04-.2-.08-.41-.25-.68-.74-.83-1.18-.08-.23-.13-.48-.15-.73,0-.12-.01-.24,0-.35,0-.08.02-.15.04-.22s.11-.18.12-.24h.02c.06-.06,0-.05-.15.02-.01.03-.03-.02.04,0,.12.04.22.07.33.14.22.13.41.32.58.5.36.38.66.81.89,1.27.2.4.45.94.15,1.36-.07.1-.18.19-.28.23.06-.02.02,0-.03,0-.09,0-.18-.02-.27-.05-.42-.15-.75-.51-.98-.88-.26-.43-.47-.94-.49-1.45-.01-.39.16-.87.55-1.02.24-.09.65.07.9.21.43.25.76.64,1.01,1.07s.43.9.27,1.38c-.11.31-.37.67-.69.77-.3.09-.74-.12-.99-.31-.72-.53-1.17-1.62-.82-2.49.13-.31.38-.62.74-.61.46.01.89.28,1.22.57.59.52,1.07,1.49.69,2.27s-1.46.37-1.99.02c-.69-.47-1.06-1.29-.84-2.11.1-.36.29-.72.59-.96.1-.08.18-.13.28-.12.27.01.49.25.67.44.65.68,1.32,1.7,1.09,2.69-.1.42-.36.8-.73,1.02-.29.17-.6.14-.91.05-.84-.26-1.49-1.05-1.59-1.92-.08-.67.13-1.6.78-1.95.31-.17.81.01,1.11.14.45.19.85.5,1.19.85s.65.78.87,1.23c.09.18.2.42.16.63,0,.04-.03.08-.04.11l-.04.05c.29-.08.38-.11.27-.1-.09-.04-.29-.02-.39-.04-.49-.09-.94-.32-1.32-.65-.21-.18-1.08.19-.91.34.52.45,1.18.71,1.87.76.58.04,1.63-.12,1.52-.91-.04-.3-.22-.6-.37-.86-.17-.29-.38-.56-.6-.8-.45-.48-1.01-.88-1.64-1.09-1.18-.4-2.72.03-3.25,1.23-.45,1.05-.1,2.26.79,2.95,1.05.81,2.64.62,3.6-.25.46-.42.69-1.02.63-1.64-.06-.66-.42-1.27-.82-1.78-.21-.26-.44-.55-.72-.73-.33-.22-.74-.23-1.12-.17-.61.1-1.2.4-1.57.91-.67.91-.53,2.16.35,2.88.45.37,1.04.58,1.62.62.69.05,1.51-.1,2.06-.55.96-.78.4-2.21-.37-2.9-.49-.44-1.12-.68-1.78-.65s-1.41.28-1.82.82c-.78,1.01-.16,2.61.88,3.19s2.73.17,3.26-.95c.29-.62.03-1.27-.32-1.8s-.81-.97-1.41-1.17c-1.11-.38-2.89.22-2.87,1.58,0,.64.33,1.32.72,1.82s.9.78,1.52.76,1.31-.24,1.68-.73c.41-.55.09-1.21-.2-1.74-.32-.58-.76-1.16-1.29-1.56-.58-.43-1.42-.4-2.01.03-.55.4-.42,1.26-.24,1.82s.59,1.27,1.21,1.43c.54.14,1.59-.11,1.64-.79.04-.6-.38-1.31-.97-1.47s-1.41.06-1.75.59c-.1.16.35.12.39.11.19-.03.45-.1.56-.28h0Z"/><path class="cls-3" d="M90.79,39.02c.03-.05.06-.11.1-.16.05-.06.05-.07.1-.12s.09-.08.14-.12c-.04.03,0,0,.01,0,.03-.02.07-.04.11-.06l-.78-.02c.08.29.07.58-.03.86-.04.13-.1.24-.18.36-.02.03-.04.06-.07.09-.02.02-.02.02,0,0-.01.01-.03.03-.04.04-.03.03-.05.05-.08.08-.01.01-.03.02-.04.04.09-.07.2-.1.33-.1l.2.04s0,.04,0,0c0-.02,0,0-.01-.03-.01-.03-.02-.07-.03-.1-.02-.08-.04-.17-.04-.25-.01-.15,0-.31.05-.45.04-.16.09-.27.18-.41.02-.04.05-.07.08-.1.04-.05,0,0,.03-.04.03-.03.06-.06.09-.09.01-.01.03-.02.04-.03-.04.03-.02.02,0,0l-.38.07-.05-.02s.04.04.04.05c.02.03.03.05.05.08.04.07.06.14.09.22.04.14.07.29.07.44,0,.26-.08.58-.2.79-.04.06-.08.12-.12.18-.02.03-.04.05-.06.08.04-.05-.04.04-.05.05-.02.02-.05.04-.07.07-.06.05,0,0,0,0-.01,0-.03.02-.04.03-.03.02-.06.03-.09.05h-.01c.07-.03.14-.05.23-.02.07-.04.14-.04.2,0,.01,0,.01,0,0,0,0-.02-.04-.11-.05-.16-.01-.08-.01-.16-.02-.25,0-.15,0-.31.02-.46.03-.31.11-.64.24-.89.04-.07.08-.13.12-.19.01-.02.03-.04.04-.05,0,0-.03.04,0,0s.06-.06.09-.09c.01,0,.1-.08.06-.06-.04.03,0,0,.01,0,.02-.02.07-.03-.02,0-.06.02-.38,0-.38-.01,0,.03.02.1.03.14.02.35-.09.72-.26,1-.05.09-.11.17-.17.25,0,0-.04.05-.02.02.02-.02-.03.03-.03.03-.03.04-.07.07-.11.1-.03.03-.07.06-.1.09-.01.01-.07.04,0,0-.02.01-.04.03-.06.04-.04.02-.08.04-.11.07-.06.04.07-.03,0,0-.03.01-.06.03-.09.04l.64.22c.31-.58.66-1.13,1.05-1.65.14-.18-.12-.29-.26-.29-.23,0-.49.08-.64.27-.4.52-.75,1.07-1.05,1.65-.07.12-.02.22.11.27.17.06.37.02.53-.05.55-.24,1.03-.65,1.29-1.19.12-.25.21-.51.23-.79.01-.13.02-.29,0-.42-.05-.21-.24-.28-.44-.3-.69-.05-1.26.57-1.5,1.15-.2.48-.23,1.03-.19,1.54.01.12.04.25.13.35.14.16.38.17.57.14.35-.05.69-.26.93-.51.35-.36.58-.85.58-1.36,0-.25-.03-.49-.13-.72-.06-.13-.13-.27-.25-.36-.2-.14-.48-.12-.7-.05-.6.18-1.06.79-1.14,1.4-.04.26-.04.68.14.91s.59.16.84.06c.18-.08.35-.2.48-.35.44-.47.65-1.12.48-1.75-.03-.12-.19-.15-.3-.15-.17,0-.34.05-.49.13-.31.17-.58.42-.74.73-.1.19.09.29.26.29.2,0,.53-.07.64-.27h0Z"/><path class="cls-3" d="M95.04,34.14s-.03-.08-.03-.12c0,0,0-.07,0-.04s0-.04,0-.04c0-.04.01-.08.03-.13,0-.02.01-.04.02-.06.02-.04-.04.05,0-.01.02-.02.05-.1.07-.11-.01,0-.05.05-.01.01.01-.01.04-.03.05-.04.03-.04-.08.05-.01.01.08-.05-.08.04-.03.01.05-.02-.12.03-.04.01h-.08s.03,0,.05,0l-.42-.14c.12.35,0,.69-.21.96-.01.02-.03.03-.04.05-.04.04.04-.03,0,0-.04.03-.07.07-.11.11s-.08.07-.12.1c-.02.01-.04.03-.05.04-.04.03.06-.04,0,0-.17.11-.35.22-.52.32h.78c-.09-.2-.09-.4-.03-.62.01-.05.03-.1.05-.15,0,0,.04-.09.02-.05,0-.02.02-.04.03-.06.03-.05.05-.09.08-.13.02-.03.04-.05.06-.08.01-.01.07-.08.02-.03.08-.09.17-.17.27-.24.01-.01.06-.05,0,0,.03-.02.05-.04.08-.06.06-.04.11-.07.17-.11.05-.03.1-.05.15-.08.03-.02.1-.08,0,0,.01-.01.05-.02.06-.03l-.06.02c-.1.03-.19.03-.28,0,.05.02.01,0,0,0,.02.02.04.04.05.06-.02-.04,0,.03.01.04.02.08,0,.17-.04.24-.07.1-.15.2-.23.3.04-.05,0,0-.02.02-.02.02-.04.04-.06.06-.04.04-.08.08-.12.12-.09.09-.19.17-.29.24-.01,0-.1.08-.02.02-.02.02-.05.03-.07.05-.05.04-.1.07-.16.1-.05.03-.1.06-.15.09-.02,0-.04.03-.06.03.14-.04.36-.15.48-.03-.03-.03,0,0,0,.02,0-.02-.01-.03-.02-.05s0-.07,0-.01c0-.01,0-.03,0-.04,0-.04.02-.07.03-.11.02-.07-.03.05,0-.01.01-.02.02-.04.04-.06.02-.02.04-.05.06-.07.05-.06-.03.03.03-.03.05-.05.09-.1.14-.14.1-.09.2-.18.3-.26.01-.01.1-.08.02-.01.03-.03.06-.04.1-.07.06-.04.11-.07.17-.11.02-.01.05-.03.07-.04.01,0,.13-.07.06-.03s.03-.01.03-.02c.04-.02.08-.04.12-.05l-.67-.07s.01.11.01.06c0,.03,0,.05,0,.08,0,.03-.02.06-.03.09,0,.02,0,.02,0-.01,0,.02-.02.03-.03.05-.01.02-.03.04-.05.06.03-.04.04-.04,0-.01-.03.03-.03.02.03-.02h-.02s-.03.03.04,0c.09-.03.1-.03.05-.02.09-.02.11-.02.05-.01-.12.01-.26.06-.37.12-.07.04-.16.12-.18.2-.05.22.29.22.42.21.51-.05,1.16-.46,1.04-1.06-.02-.1-.16-.13-.24-.14-.15-.02-.3.01-.43.07-.61.26-1.2.67-1.61,1.2-.14.18-.24.48-.07.67s.5.14.7.09.41-.18.59-.3c.28-.18.54-.39.78-.62.22-.22.53-.51.55-.84.01-.15-.03-.31-.15-.42-.2-.18-.49-.17-.73-.1-.37.1-.72.33-1.02.55-.54.41-1,1.13-.73,1.82.05.12.18.14.3.15.17,0,.34-.05.49-.13.43-.24.85-.5,1.16-.89.27-.34.42-.82.27-1.24-.05-.16-.29-.15-.42-.14-.59.06-1.35.6-1.12,1.29.07.2.4.16.55.11.11-.03.24-.08.32-.16.05-.05.12-.13.1-.21h0Z"/><path class="cls-3" d="M101.34,27.6c.08-.12.19-.22.31-.3.03-.02.08-.03.1-.05.06-.04,0,0-.03,0,.03,0,.07,0,.1-.01.14,0,.25.02.25.18,0,.13-.05.26-.12.36-.13.2-.35.32-.57.4-.03,0-.09.02-.11.03l.15-.03-.05-.05s-.03-.06-.04-.08c-.05-.14-.04-.31,0-.45.18-.58.81-.83,1.36-.92.16-.03.92-.16.64.21-.08.11-.23.19-.35.26-.15.1-.31.19-.47.27-.68.35-1.4.54-2.16.58l.23.16c.39-.43.98-.93,1.59-1,.02,0,.03,0,.05-.01-.06.01-.06.04,0,.08,0,.08,0,.11-.03.19-.07.15-.22.26-.35.35-.19.13-.48.3-.72.27l.14.03c-.35-.15.28-.82.44-.93.07-.05.13-.09.21-.12.05-.02.18-.04.21-.08.03-.05-.2.06-.17.02,0,0,.03.06.03.08,0,.1-.01.17-.06.26-.17.34-.63.61-.97.74-.06.02-.18.08-.24.07-.05,0,.04.02.02,0-.03-.04-.04-.07-.04-.11,0-.2.24-.4.37-.52.2-.19.58-.46.82-.46.12,0,.26.05.34.14.14.17.05.38-.07.53-.27.33-.65.61-1.02.81-.27.14-.65.34-.97.33-.25,0-.34-.28-.3-.49.05-.23.22-.37.43-.47.48-.22,1-.36,1.52-.46l-.39-.1c-.11.24-.24.46-.43.65-.08.08-.16.16-.25.23-.06.04-.12.08-.18.12-.07.04-.19.06,0,.01l.35-.05h-.07s.09.02.14.03c-.31-.15.18-.77.31-.92.12-.13.25-.25.41-.34.06-.04.13-.07.19-.1.06-.02.15,0,.05-.02l-.14-.03c.37.15-.02.81-.15,1.02-.21.33-.52.64-.89.8-.12.05-.2.09-.31.01-.19-.14-.22-.44-.17-.65.12-.48.57-.72.98-.92.21-.1.42-.2.63-.29.15-.06.31-.16.48-.11.48.14.43.77.2,1.1-.48.7-1.4.85-2.18.91-.23.02-.52.07-.74.04-.27-.05-.03-.35.08-.43.49-.34,1.07-.6,1.62-.84.11-.05.3-.18.12-.26s-.51.05-.68.12c-.49.21-.96.45-1.42.72-.26.15-.88.43-.81.83s.81.25,1.08.23c.46-.02.93-.06,1.39-.15.87-.17,1.85-.51,2.42-1.23.25-.32.39-.78.14-1.14s-.74-.35-1.13-.29c-.52.08-1.01.3-1.48.52-.43.2-.88.41-1.23.72-.3.27-.53.68-.42,1.09.14.52.68.51,1.12.43.85-.16,1.67-.62,2.15-1.36.17-.26.44-.73.29-1.04-.19-.42-.95-.14-1.26-.04-.45.16-.88.41-1.2.76-.2.22-.67.76-.46,1.09.15.22.54.12.74.07.27-.07.53-.22.76-.38.39-.28.69-.65.89-1.08.07-.16-.35-.11-.39-.1-.57.11-1.14.26-1.68.46-.45.16-1.02.35-1.29.77-.23.35-.12.82.31.93.49.12,1.08-.07,1.54-.22s.91-.36,1.32-.63c.36-.24.82-.56,1.03-.96s-.07-.67-.44-.74c-.48-.1-.99.04-1.43.21s-.88.43-1.22.77c-.21.21-.67.78-.11.88.27.05.57-.03.83-.1s.53-.16.77-.28c.43-.2.87-.49,1.16-.86.1-.12.18-.28.17-.44-.01-.22-.21-.27-.4-.28-.5-.01-1.08.24-1.5.5-.35.22-.7.54-.81.95-.16.57.55.44.9.38.59-.11,1.16-.35,1.63-.72.18-.14.4-.33.42-.57s-.22-.33-.43-.33c-.58-.02-1.24.24-1.75.5s-.94.57-1.31.98c-.14.16.13.17.23.16,1.23-.07,2.44-.43,3.51-1.05.21-.12,1.2-.63.84-.99-.17-.17-.52-.12-.73-.11-.37.01-.73.07-1.08.15-.56.13-1.12.33-1.57.69-.35.27-.69.73-.55,1.2.17.59,1.06.25,1.45.1.42-.16.92-.41,1.14-.83.09-.17.16-.48-.03-.61-.21-.15-.6-.1-.84-.08-.66.08-1.31.36-1.71.91-.11.15.35.11.39.1.19-.03.44-.1.57-.27h0Z"/><path class="cls-3" d="M109.96,23.37c.1-.02.18-.06.28,0,.1.06.2.2.15.32-.04.09-.18.14-.27.19-.12.06-.26.12-.36.15-.18.06-.44.12-.64.09-.25-.04-.4-.24-.38-.49.02-.29.25-.48.48-.63.12-.07.24-.14.36-.2.06-.03.1-.05.15-.07.04-.01.07-.03.11-.04,0,0,.14-.05.09-.03.15-.05.25-.07.37-.09.04,0,.08-.01.11-.02.01,0,.09-.01.01,0,.03,0,.06,0,.09,0,.05,0,.02,0,.05,0,.22,0,.44.07.58.25.15.2.13.45.03.66-.05.11-.11.2-.19.28-.03.03-.07.07-.1.1-.02.02-.05.04-.07.05-.05.03,0,0-.05.03-.08.04.04-.01-.05.02,0,0-.12.04-.07.03.03,0-.15.04-.08.02-.15.03-.29.04-.45.05-.14,0-.28,0-.42,0s-.29,0-.42-.03c-.3-.07-.13-.4.02-.53.2-.17.47-.3.69-.39s.44-.14.68-.16c.1,0,.26-.03.34-.01.09.03.14.11.07.19-.08.09-.27.15-.38.2s-.3.12-.4.15c-.13.04-.3.08-.43.11-.18.04.19-.05.16.02,0,0,0-.06,0-.08.02-.06.06-.1.11-.14.1-.09.21-.17.32-.23-.02,0,.14-.05.07-.03.1-.03.04-.01.02,0,.15-.04-.06.02-.04,0,0,0,.02.08.02.07,0,.03-.02.06-.03.09-.03.05-.08.09-.13.11,0,0,.01,0,.02,0-.1.06-.02,0,.01,0,0,0,.11.01-.03,0,.03,0-.12-.02-.1-.01l.17.13s.16-.16.16-.16c0,.08-.32.02-.08.05.22.03.5-.06.68-.18.16-.11.12-.21-.06-.24-.6-.08-1.32.18-1.66.69-.06.1.13.13.17.13.54.07,1.16-.1,1.59-.43.13-.11.32-.31.23-.5-.12-.25-.55-.17-.75-.13-.52.09-1.03.31-1.42.68-.11.11-.29.29-.23.46.09.26.57.13.75.1.55-.11,1.08-.29,1.58-.53.21-.1.45-.21.59-.39s.09-.38-.12-.47-.44-.07-.66-.06c-.29.02-.58.06-.86.12-.52.12-1.01.31-1.47.58-.28.16-.91.54-.72.96.09.19.31.25.5.27.23.03.48.03.71.03.95,0,2.22-.16,2.72-1.09.18-.32.18-.72-.1-.99-.29-.28-.78-.3-1.16-.27-.53.05-1.07.19-1.56.4-.45.19-.97.44-1.29.82s-.31.95.21,1.14c.23.08.49.08.73.06.31-.03.63-.09.93-.18s.6-.2.88-.35c.21-.11.55-.27.62-.52.06-.22-.11-.43-.31-.51-.29-.12-.63-.06-.92,0-.13.03-.25.06-.37.12-.05.02-.18.09-.19.16-.04.18.31.14.39.12h0Z"/><path class="cls-3" d="M121.62,22.39c.12-.07-.13.05-.13.03,0,0,.06,0,.09.01.1.02.2.07.29.12.2.13.34.32.38.56l.57-.31c-.67.1-1.36.09-2.04.01-.29-.03-.64-.05-.9-.19-.09-.05-.19-.11-.24-.21-.02-.04-.04-.09-.03-.14.01-.1.11-.11-.08-.04s-.12.04,0,.04c.07,0,.15,0,.22,0,.16,0,.33,0,.49,0,.32,0,.64.02.95.06.47.07,1,.23,1.21.69l.2-.2c-.32.15-.66.24-1.01.27s-.81.05-1.15-.11c-.15-.07-.26-.18-.3-.34-.02-.06-.03-.13-.01-.19,0-.02.05-.1.04-.11.02.04-.35.07-.2.08.17,0,.33-.01.51.02.21.03.41.1.61.18.12.05.42.17.43.31,0,.06-.03.07-.06.12l.06-.03s-.06.02-.08.03c-.05.02-.09.03-.14.05-.24.08-.52.16-.82.16-.33,0-.66-.1-.91-.32-.06-.05-.11-.11-.15-.18-.01-.03-.03-.07-.03-.1,0-.1.06-.12-.08-.07-.22.08.05,0,.1-.01.04,0,.14-.03.22-.05.73-.14,1.51-.18,2.11.33l.18-.23c-.34.18-.7.17-1.07.08l-.03.21c.17-.11.27-.14.47-.13.23.01.49-.06.68-.18.15-.1.13-.21-.06-.22-.64-.04-1.31.14-1.84.49-.09.06-.18.17-.03.21.81.2,1.69.05,2.43-.33.06-.03.28-.14.18-.23-.84-.71-2.09-.53-3.08-.32-.4.09-1.5.3-1.05.92.3.41.91.53,1.39.53.61,0,1.21-.15,1.78-.35.26-.09.57-.2.74-.43.19-.26-.1-.43-.31-.54-.53-.28-1.13-.39-1.72-.33-.46.04-1.48.27-1.19.95.24.58,1.18.54,1.69.53.78-.02,1.56-.22,2.27-.55.04-.02.24-.12.2-.2-.22-.46-.7-.68-1.17-.78-.65-.14-1.34-.14-2-.12-.37.01-.73.04-1.07.18-.22.09-.54.27-.49.56.04.24.32.37.53.45.31.11.66.14.98.17.83.1,1.66.07,2.48-.05.1-.01.6-.13.57-.31-.18-.97-1.46-.97-2.15-.6-.09.05-.32.19-.12.26.19.06.51-.03.68-.12h0Z"/><path class="cls-3" d="M128.67,24.72c.11.11.26.18.41.23.14.05.28.08.39.19.06.06.12.16.11.26,0,0-.02.08-.02.05l.22-.11c.06-.01.06-.02,0,0-.09,0-.03,0,0,0-.06,0-.11,0-.17,0,.07,0-.07,0-.07,0-.03,0-.06,0-.09,0-.07,0-.14-.02-.21-.04-.15-.04-.3-.1-.44-.17-.24-.13-.55-.34-.63-.63,0-.03-.02-.06-.02-.09,0-.02.03-.08.02-.08,0,0-.05.04-.08.05-.02.01-.13.05-.03.02.12-.05-.09,0,.04,0,0,0,.13-.02.07-.01s.07,0,.07,0c.02,0,.16,0,.11,0,.28.01.57.09.82.24.13.08.26.17.37.28.04.04.08.09.11.15,0,0,.06.21.02.19-.03-.01.14-.06,0-.02.09-.03-.05.02-.06.02.13-.05-.18.03-.05.01,0,0-.15.02-.06.01-.03,0-.06,0-.09,0,0,0-.14,0-.07,0-.06,0-.12-.01-.18-.02-.67-.12-1.17-.7-1.3-1.35l-.43.32c-.13.03.06,0,.09,0-.1.01-.01,0,0,0,.03,0,.06,0,.09,0,.08,0-.02,0,.02,0,.03,0,.06,0,.09,0,.06,0,.12.02.18.03.17.03.43.13.62.24.43.26.77.63.94,1.11l.68-.36c-.08,0-.08,0-.15,0-.05,0-.11-.01-.16-.02-.14-.03-.27-.08-.39-.15-.11-.06-.23-.13-.3-.23-.03-.04-.05-.09-.06-.15,0-.09.07-.1-.07-.03l-.24.09h.03c-.08,0-.17.02-.25.03l-.12-.03s.02.02.03.02c0,0,.01.03.01.04-.06.28.9.13.96-.15.09-.41-.53-.37-.76-.31-.29.08-.71.35-.52.7.13.24.41.39.65.48.29.12.61.16.93.15.17,0,.34-.05.49-.13.06-.03.23-.13.19-.23-.2-.57-.63-1.01-1.16-1.29-.61-.32-1.3-.36-1.97-.21-.12.03-.47.15-.43.32.17.86.92,1.48,1.79,1.56.56.05,1.19-.06,1.67-.36.21-.13.36-.34.24-.59-.09-.19-.26-.32-.43-.43-.37-.25-.81-.39-1.26-.41-.27-.01-.53,0-.8.06-.28.06-.62.14-.81.37-.33.38.13.82.44,1.03.37.25.81.4,1.25.43.31.02.63,0,.93-.08.27-.08.65-.25.62-.59-.02-.21-.2-.38-.37-.47-.2-.1-.43-.13-.6-.29-.21-.2-1.11.15-.9.35h0Z"/><path class="cls-3" d="M95.96,39.98s-.04.03,0,0l-.05.03s.03-.02-.04.02c-.04.02-.08.03-.12.04-.04,0-.07.02-.11.02-.06,0-.07,0-.04,0,.02,0,.02,0-.02,0,.02,0,.03,0,.05.02l-.09-.13s-.02.04-.03.04c-.02.03-.04.05-.06.08-.03.04-.07.08-.11.12-.02.02-.04.04-.06.06,0,0-.08.08-.05.05s-.04.04-.05.04c-.02.02-.04.03-.06.05s-.04.03-.07.05c-.07.05.07-.04,0,0-.05.03-.12.05-.17.09l.06-.03s-.03.01-.05.02c-.03,0-.05.02-.08.03.14-.06.06-.02.02,0-.04.01-.17.04,0,0l.4.14c.02-.15.07-.3.14-.44,0-.02.02-.04.03-.05.02-.04,0,0,0-.02.02-.03.04-.06.07-.09.05-.06.1-.12.16-.17.03-.03-.05.04,0,0,.02-.01.03-.03.05-.04.03-.02.06-.04.09-.07.04-.03-.08.04-.02,0,.01,0,.03-.02.04-.02.02,0,.04-.02.06-.03.05-.03-.1.04-.03.01.02,0,.03-.01.05-.02.09-.03-.1.03-.04.01.02,0,.04-.01.06-.02.07-.02-.05.01-.06.01.01,0,.05,0,.06-.01.04,0,.09,0-.03,0,.03,0,.17,0,.04,0l-.18-.09c.01.06.02.11.02.17v-.05c0,.09-.03.17-.07.25-.03.06.03-.03-.02.03-.01.02-.03.03-.04.05s-.03.03-.04.05c0,0-.07.07-.01.01-.03.03-.07.05-.11.08-.07.05.08-.04,0,0-.02.01-.06.02-.07.04.02-.02.1-.04.02-.01-.08.03.01,0,.04-.01-.08.02-.04.02.12,0,.06-.03.12-.03.17,0,0-.02-.03-.03-.04-.05l.03.05c-.06-.09-.06-.19-.05-.3v.05c0-.14.05-.28.11-.41.02-.03.03-.07.05-.1,0,0,.03-.05.01-.02s.01-.02.02-.02c.04-.06.09-.12.15-.17.01-.01.02-.02.04-.03.03-.03-.05.04,0,0,.03-.02.06-.05.09-.07.01,0,.03-.02.04-.03-.01.01-.07.04-.03.02.01,0,.03-.02.04-.02.08-.04-.08.03-.03.01.02,0,.03-.01.05-.02.05-.02-.11.03-.06.02.02,0,.04-.02.06-.02,0,0-.13.02-.06.01.02,0,.03,0,.05,0-.03,0-.07.01-.11,0-.01,0-.03,0-.04,0-.01,0-.01,0,0,0,0,0,.03.04.03.04l-.03-.05s.03.09.03.14v-.05c0,.06-.03.12-.05.18-.02.03-.02.03,0,0,0,.01-.02.03-.03.04-.02.03-.05.06-.07.09s-.05.05-.08.08c-.01.01-.07.07-.02.02-.06.05-.11.09-.18.14-.02.01-.03.02-.05.03.05-.03.06-.03.02-.01-.03.02-.06.04-.1.05-.04.02-.1.03,0,0-.03,0-.07.03-.1.04-.02,0-.03.01-.05.02.08-.03.1-.03.05-.02-.04,0-.07.02-.11.03.08-.02.1-.02.05-.01-.02,0-.04,0-.06,0-.02,0-.04,0-.06,0,.07,0,.09,0,.04,0l.24.21s.07-.07.11-.1c.05-.04-.02.01.01-.01.02-.02.04-.03.06-.05.07-.06.15-.11.23-.17,0,0,.02-.01.02-.02.03-.02.02-.01-.03.02.01,0,.04-.02.05-.03.04-.02.09-.05.13-.07.02-.01.04-.02.07-.03.05-.03-.11.05-.02,0,.05-.02.09-.04.14-.05.09-.03.42-.19.28-.32-.06-.06-.18-.06-.25-.05-.13,0-.26.04-.38.08-.49.18-.93.46-1.3.83-.16.16.14.22.24.21.65-.05,1.29-.29,1.78-.73.17-.15.35-.35.37-.58.03-.39-.47-.37-.73-.33-.58.1-1.13.4-1.43.91-.11.19-.17.41-.17.63,0,.11.03.23.11.3.17.16.49.1.69.05.35-.09.7-.27.95-.53.18-.19.3-.46.23-.72-.02-.06-.12-.09-.18-.09-.93-.03-2.1.5-2.24,1.52-.03.19.29.16.4.14.74-.16,1.41-.52,1.81-1.17.04-.06-.05-.12-.09-.13-.22-.08-.47-.06-.7,0s-.45.16-.62.33c-.04.04-.06.11,0,.16.06.05.19.06.25.05.22-.01.48-.08.64-.24h0Z"/><path class="cls-3" d="M104.64,34.35c-.5-.02-.66,0-.48.08-.02-.02-.02-.02,0,0,0,0,.04.06.03.04.03.05.01.11,0,.16-.07.13-.21.22-.31.28-.04.03-.08.05-.12.07-.12.07.08-.04-.04.02-.05.02-.1.05-.15.07-.03.01-.14.06-.03.01-.04.02-.08.02-.12.04-.03,0-.19.06-.07.02-.03.01-.09.01-.12.02-.02,0-.19.02-.08.01l.3.15c-.01-.17.04-.35.12-.49.03-.04.05-.09.09-.13.01-.02.02-.03.04-.04-.03.03.01-.01.02-.02.04-.04.07-.07.11-.1.01,0,.06-.05,0,0,.02-.02.04-.03.07-.04.02-.02.05-.03.07-.04.08-.05.02-.01,0,0,.05-.02.09-.04.14-.06.01,0,.1-.04.04-.01s.02,0,.04-.01c.06-.02.12-.03.19-.05.02,0,.04,0,.06-.01.08-.02-.08.01,0,0,.05,0,.1-.02.15-.03.02,0,.16-.02.16-.02,0,.03-.11-.03-.12-.02.02,0,.02.02.03.05,0,0,0,.05,0,.01,0,.02,0,.04,0,.06-.02.1-.03.11-.08.19-.01.02-.02.03-.04.05,0,0,.03-.04,0,0-.04.04-.07.08-.11.11-.03.03-.07.06-.1.09-.02.02-.04.03-.06.05,0,0-.09.07-.05.04.04-.02-.02.01-.02.01-.02.01-.04.03-.07.04-.04.03-.09.06-.14.08-.02.01-.05.03-.07.04,0,0,.07-.03.02-.01-.05.02-.11.05-.16.07-.02.01-.05.02-.07.03-.01,0-.07.03-.01,0,.06-.03-.01,0-.03,0-.03,0-.05.02-.08.02-.04.01-.09.02-.13.03-.09.02,0,0,.01,0-.03.01-.07,0-.1.02-.07.02.06,0,0,0-.02,0-.04,0-.06,0,.07,0,0,0-.01,0,.03.02-.03-.02-.02-.02.04.03-.03-.03-.04-.04-.04-.04-.04-.04-.05-.07-.06-.15-.05-.26,0-.4.02-.05-.02.03,0-.01,0-.02.02-.03.03-.05,0-.01.02-.02.03-.04-.04.05-.02.02,0,0,.02-.01.03-.03.05-.04-.02.01-.06.03,0,0,0,0-.08.03-.03.01.1-.04,0,0,0,0,0,0,.06-.02.07-.02.05-.01.03-.03-.02,0,.01,0,.07,0,.08-.01,0,0,.07,0,.02,0-.06,0,.02,0,.04,0,.03,0,.05,0,.08,0,.05,0,.1,0,.15,0,.01,0,.09.01.04,0s.03,0,.04,0c.02,0,.04,0,.05.01-.05-.01,0,0,.01,0,.05.03.09.07.1.16,0,.06-.02.15-.04.2-.02.03-.04.08-.07.11-.01.02-.02.03-.03.04.04-.04-.04.04-.04.04-.03.03-.07.06-.1.09-.02.01-.11.08-.06.05-.04.03-.09.06-.13.09-.02.01-.05.03-.07.04-.04.02-.04.02,0,0-.05.02-.1.04-.15.06-.02,0-.05.02-.07.03.01,0,.11-.03.01,0-.05.01-.09.02-.14.03-.07.02.09-.01.01,0-.01,0-.1,0-.1.01,0,0,.07,0,.07,0l.06.03-.02-.02s-.02-.04-.03-.09c0-.06.02-.17.06-.24s.09-.16.15-.24c0,0,.05-.05,0-.01.02-.02.04-.04.07-.06.01-.01.03-.02.04-.04,0,0,.08-.07.04-.04s.02-.01.03-.02c.03-.02.05-.03.08-.05.02-.01.04-.02.06-.04-.05.03-.04.02,0,0,.06-.03.12-.05.18-.07,0,0-.08.02-.02,0,.04,0,.07-.02.11-.03.06-.02.13-.03.19-.05.06-.01-.01,0-.02,0,.04,0,.09-.02.13-.02.13-.02.26-.04.4-.05l-.42-.21s-.06.12-.1.16c-.02.03-.04.06-.06.09-.01.01-.02.03-.03.04.02-.02.02-.02,0,0-.05.06-.11.11-.17.16.06-.05,0,0-.03.02-.03.02-.06.04-.09.06-.1.06.09-.04-.02,0-.02,0-.08.02-.1.04.06-.02.08-.03.04-.01-.02,0-.03.01-.05.01-.02,0-.05.01-.07.02h.06s-.09,0-.11,0c.06,0,.07,0,.01,0h-.04s.12,0,.05,0c.01.01,0,0-.01-.02.02.02.02.05,0,.08l-.52.26c.37-.06.77-.24.88-.63.06-.21-.3-.23-.42-.21-.19.03-.49.12-.55.33-.03.1.02-.04-.02.05-.02.05-.01.01.03-.02.06-.04.33-.09.14-.05-.11.02-.21.06-.3.11-.17.1-.28.31-.12.47.27.26.77.17,1.09.09.64-.16,1.2-.57,1.48-1.18.03-.07-.05-.15-.1-.17-.09-.05-.22-.05-.32-.03-.67.09-1.36.2-1.92.6-.26.18-.47.41-.6.7-.1.22-.16.52.06.69.3.23.81.1,1.13,0,.35-.11.67-.27.96-.48.24-.18.46-.4.56-.68s-.02-.57-.3-.68c-.3-.12-.66-.12-.98-.09-.37.03-.74.15-1.04.38-.36.27-.58.92-.15,1.24.33.24.77.18,1.14.1.33-.07.65-.2.95-.35.27-.14.52-.32.74-.52.19-.17.4-.4.42-.67.03-.44-.45-.49-.78-.45-.4.05-.8.14-1.17.3-.63.27-1.24.82-1.18,1.56,0,.11.22.15.3.15.74-.04,1.46-.28,2.04-.75.21-.17.49-.49.35-.78-.2-.41-.8-.35-1.12-.13-.13.09-.29.27-.08.38.19.1.51.03.68-.09h0Z"/><path class="cls-3" d="M110.89,30.41c.1-.09.21-.17.32-.24.03-.02.06-.04.08-.05-.02.01-.06.03.02-.01.06-.03.12-.06.18-.09s.12-.06.18-.08c.03-.01.06-.03.09-.04-.02,0-.08.03.02,0,.13-.04.26-.08.39-.11.03,0,.07-.01.1-.02-.08.01,0,0,.02,0,.07,0,.13-.02.2-.02.16-.01.22-.01.35,0,.02,0,.15.02.09,0,.03,0,.1.05.06,0,.05.05.04.12.02.16.02-.03-.04.05-.01.02.03-.04-.06.05-.01.01.04-.03-.02.01-.03.02-.03.01-.06.03-.09.04-.09.04-.03.01,0,0-.03.01-.07.02-.1.03-.08.03-.16.05-.25.07-.31.08-.52.12-.82.15s-.58.04-.88,0c0,0-.05-.01-.06,0h-.02s.07.01.09.05c.13.12.02.04.05.02v-.02s0,.02,0,0c0,0,.04-.08.01-.04-.02.04,0-.01.01-.02.02-.02.03-.04.05-.06-.07.07.02-.01.03-.02.02-.02.07-.04,0,0,.02,0,.04-.02.05-.03s.16-.07.11-.05.1-.03.12-.04c.06-.02.12-.03.18-.05.32-.08.63-.15.95-.23.06-.01.12-.03.18-.04-.11.02.04,0,.07,0,.02,0,.04,0,.06,0h.02c-.05,0-.06,0-.02,0,0,0,.1,0,.04,0-.05,0,.05.02-.01,0,.02,0,.04.03.06.04-.03-.03,0-.02,0,.01-.01-.04.02.09.02.06,0,.04-.01.08-.02.1-.02.06.03-.03-.01.03,0,.01-.07.07-.03.04-.05.05-.04.03-.01.02-.03.02-.06.03-.08.04s-.06.03-.09.04c.02,0,.09-.03-.01,0-.14.05-.29.09-.44.12-.3.07-.52.1-.84.12-.08,0-.15,0-.23,0-.04,0-.08,0-.12,0-.11,0-.06,0-.04,0-.01,0-.09,0-.09,0,0,0,.04,0,.04.01.03.05,0,.05.02,0,.01-.04,0,0,0,0,.01-.04.02-.05,0-.02.01-.02.12-.13.06-.08.05-.04.1-.08.16-.12.03-.02.06-.04.08-.06-.05.03.03-.02.05-.03.3-.17.45-.22.78-.29.08-.02-.07,0,.02,0,.04,0,.08-.01.13-.02.08,0,.15-.01.23-.02,0,0,.11,0,.07,0-.04,0,.06-.01.03,0,0,0-.04-.03-.04-.03l.02.03s-.01-.03,0,0c0,.02.01.05.02.07,0,.03,0-.02,0,.04,0,.03,0,.05-.01.07.01-.06-.03.05,0,0,.02-.05-.03.04,0,0,.02-.02-.06.04,0,0-.03.02-.06.03-.08.04.07-.03,0-.01-.03,0-.07.02.07,0,0,0-.04,0-.08,0-.12.01-.09,0-.17,0-.26,0-.21,0-.41.02-.62.06l.41.56c.2-.17.34-.37.38-.63.04-.24-.26-.34-.45-.32-.22.02-.49.15-.53.39,0,.04,0,.05-.03.09-.01.02-.01.03,0,0-.04.04-.04.04,0,.01-.13.11-.23.28-.12.44s.36.16.53.12c-.08.02.1-.01.09-.01.06,0,.11,0,.17,0,.1,0,.19,0,.29,0,.24,0,.48-.05.71-.15.39-.16.72-.51.67-.96-.05-.49-.55-.6-.96-.59-.43,0-.86.11-1.26.26-.38.15-.77.35-1.06.64-.27.27-.46.75-.08,1.03.2.15.46.15.69.15.21,0,.42,0,.63-.03.44-.04.89-.13,1.31-.27s.88-.37,1.02-.83c.12-.41-.11-.78-.51-.89s-.81-.01-1.21.08c-.38.09-.77.16-1.13.29s-.74.33-.93.69c-.09.18-.13.42-.01.6s.37.23.57.25c.9.07,1.83-.05,2.67-.37.42-.16.91-.55.78-1.06s-.78-.55-1.21-.54c-.91.01-1.83.36-2.53.95-.16.13-.25.36-.05.51.19.14.52.09.69-.06h0Z"/><path class="cls-3" d="M122.2,28.15c-.23,0-.44-.05-.64-.14l-.2.62c.29-.07.59-.1.88-.08.11,0,.24.01.34.07.04.02.08.06.11.1.02.04.01.11.03.14,0,0,0,.02,0,.02,0,0,.1-.08.1-.07,0,0-.14.04-.17.04-.16.04-.31.06-.47.08-.32.04-.65.05-.97.03s-.68-.07-1-.16c-.09-.03-.18-.05-.25-.11,0,0-.1-.17-.07-.16,0,0-.04.04-.04.04-.01.02-.06,0,0,0,.02,0,.06-.02.08-.02-.06.01.06,0,.08,0,.06,0,.13,0,.19,0,.37,0,.74,0,1.11,0s.71,0,1.06,0c.16,0,.33,0,.49,0,.11,0,.25,0,.35.06.06.04.1.11.1.19,0-.04.06-.03-.03,0-.08.03-.15.07-.22.1-.27.1-.57.17-.86.21-.32.05-.65.08-.97.1-.23.02-.55.09-.73-.1-.14-.15-.1-.29.05-.34.3-.1.61-.14.93-.15.3-.01.69-.01.96.11.05.02.1.05.14.09,0,0,.02.02.03.03v.05s.01-.02.02-.03c0,0,.03-.04.03-.04-.02-.01.18.03-.03,0-.06,0-.17.05-.24.07-.61.14-1.25,0-1.78-.33l-.29.57c.26-.08.52-.11.79-.05l-.12-.43c-.07.08-.03.06.13-.05.04-.01.09-.01.14,0,.03,0-.04,0-.04-.02l-.28.39c.15-.08-.08,0-.05,0,.23.06.52,0,.68-.18.14-.16.1-.38-.12-.43-.31-.08-.64-.05-.93.1-.11.05-.36.23-.28.39.28.56,1.16.53,1.54.06.12-.15.12-.38-.12-.43-.51-.11-1.02-.11-1.52.06-.2.06-.63.37-.29.57.82.51,1.83.64,2.76.4.38-.1,1.07-.34.96-.87-.09-.45-.68-.57-1.05-.63-.51-.08-1.04-.07-1.55.02-.47.08-1.06.19-1.38.59-.3.37-.16.85.22,1.09.43.28.99.2,1.46.16.51-.04,1.02-.1,1.52-.22.43-.11,1.03-.26,1.33-.62.32-.39.07-.86-.35-1.03-.45-.18-1.02-.1-1.5-.11-.54,0-1.08,0-1.62-.01-.48,0-.97-.03-1.39.24-.33.21-.52.64-.22.97s.84.4,1.27.47c.57.09,1.17.1,1.75.03.49-.06,1.3-.12,1.55-.63s-.2-.9-.64-1.02c-.58-.15-1.23-.07-1.8.07-.31.08-.59.44-.2.62.35.16.73.2,1.11.19.2,0,.51-.15.54-.37.03-.24-.26-.3-.44-.29h0Z"/><path class="cls-3" d="M129.53,29.37c.06-.01.05-.01-.02,0h.04c-.06,0-.06,0,0,0h-.03c.1,0,.11,0,.19.05.14.06.24.17.32.29l.39-.42c-.09.03-.19.06-.29.08.1-.02-.06,0-.07,0-.05,0-.1.01-.15.02.08,0-.08,0-.08,0-.05,0-.1,0-.15,0-.08,0-.19-.02-.29-.04-.14-.03-.3-.07-.42-.16-.05-.04-.1-.09-.12-.15,0-.03,0-.05,0-.08.01-.03.01-.04,0-.02.02-.03.02-.03,0,0l.02-.02s-.05.04-.09.05l-.06.02c.05-.01.04-.01-.03,0,0-.02.15,0,.02,0,.03,0,.07,0,.1,0,.18,0,.39.04.59.08.38.08.74.21,1.09.39.03.01.07.03.09.05.02.01.07.08.09.08s.28-.14.08-.07c-.1.04-.19.07-.29.11-.16.06.09-.02-.07.02-.07.02-.13.04-.2.06,0,0-.17.04-.07.02-.05,0-.1.02-.15.02-.15.02.07,0-.08,0-.04,0-.08,0-.12,0,.08,0-.05,0-.06,0-.04,0-.08-.01-.12-.02-.06-.01-.14-.05-.22-.08-.13-.07-.25-.16-.33-.28-.05-.07-.06-.13-.08-.21-.03-.14.02-.03,0-.03-.02,0-.11.07-.14.08.12-.04-.12,0,.03,0,.05,0,.09-.01.14-.01-.09,0,.06,0,.06,0,.05,0,.09,0,.14,0,.11,0,.33.04.48.09.19.06.38.15.55.26.04.02.07.05.1.08s.05.09.08.11c.1.09.19-.18.31-.16-.02,0-.18.01-.11.01-.17,0-.33.02-.46-.11-.11-.11-.16-.26-.08-.41.03-.07-.05-.14-.1-.16-.09-.04-.22-.04-.32-.03-.21.03-.45.12-.55.32-.11.22-.02.48.15.65.22.22.57.28.88.27.37,0,.81-.03,1.1-.29.11-.1.19-.24.13-.39-.05-.13-.16-.22-.27-.29-.49-.33-1.08-.5-1.67-.49-.36,0-.75.05-1.06.23-.28.16-.46.42-.28.73.27.48.86.67,1.38.68.34,0,.69-.06,1.02-.16.17-.05.35-.11.52-.18s.35-.12.49-.23c.11-.09.21-.21.17-.36s-.18-.24-.3-.31c-.25-.14-.53-.25-.81-.34-.59-.19-1.26-.34-1.88-.2-.29.07-.7.24-.77.57-.06.3.21.53.46.63.67.29,1.51.26,2.19.03.15-.05.53-.19.39-.42-.31-.49-.99-.57-1.5-.42-.13.04-.47.16-.42.36s.42.13.54.1h0Z"/><path class="cls-3" d="M98.82,44.46s.08-.12.04-.07l.02-.02s.03-.03,0,0c.04-.02.04-.02,0,0-.03.02-.05.03-.08.03.05-.01.04-.01-.03,0-.06,0-.07,0-.02,0l-.2-.36c-.05.06-.1.11-.16.16-.02.02-.05.04-.07.06-.05.05.08-.05-.02.01-.06.04-.12.07-.18.11-.06.04.1-.04,0,0-.05.02-.09.04-.14.06-.11.05.08-.02,0,0-.03,0-.06.02-.09.03-.03,0-.07.02-.11.03.12,0,.03-.01,0,0h-.02c.06,0,.13.01.18.05l-.02-.02s.02.03,0,0c.02-.07-.01.04,0-.03,0-.03.01-.06.02-.08-.02.05.06-.09.05-.07-.03.04.05-.05.04-.05.03-.03.05-.05.08-.07s.06-.05.08-.07c-.01.01-.07.04,0,0,.03-.02.06-.04.09-.06.02-.01.04-.02.06-.04-.05.03-.06.03-.03.02.03-.01.06-.02.08-.04.11-.05-.11.03.01,0,.04,0,.07-.02.11-.03.06-.02.02-.03-.02,0,.03-.02.13.01.03,0,0,0-.09-.02-.08-.03,0,0,.04.08.05.11,0,.07-.05.14-.1.19-.02.02-.04.03-.06.05,0,0-.11.08-.03.03-.02.02-.07.06-.09.06.05-.02.06-.03.03-.01-.07.03-.02.02.13-.03.05,0,.09,0,.14.01h-.03s.02,0,0-.02c-.02-.03-.03-.03-.02-.06s.03-.05.05-.07c.03-.02.05-.05.08-.07.02-.02.04-.03.06-.05t0,0c.05-.03.1-.06.15-.1.1-.06-.09.04.02,0,.02,0,.04-.02.07-.03h.03c.05-.03.05-.03-.02,0,.03-.02.08-.02.1-.03.01,0,.05-.02.07-.02-.07.01-.08.02-.02,0,.02,0,.05,0,.07,0,.03,0,.13-.03.02,0,.02,0,.05,0,.07,0,.04,0,.07,0,.11,0,.12,0-.08-.02.04,0,.02,0,.05,0,.07.01-.02,0-.02,0-.03-.03,0,0,0,.08.01.04,0,0-.03.09-.01.05,0,.01-.07.09-.01.03-.03.03-.07.06-.1.09.01-.01.07-.04,0,0-.02.01-.04.02-.06.04-.05.03-.04.02.02,0-.02.02-.07.03-.1.04-.09.04.1-.03,0,0-.03,0-.07.02-.1.03-.02,0-.05.01-.07.02h.06c-.07.02-.17.02-.25.02-.07,0-.14.01-.21.02-.03,0-.07,0-.11,0h.06s-.04,0,.01,0c.06.03.02.03.02,0,.01,0,.02.02.02.04-.02.05-.06.09-.11.11l-.23.1h.02c-.08,0-.17.02-.25.03h.02c-.07-.01-.13-.03-.2-.04h.02c.21.1.5.04.68-.08.12-.08.3-.29.08-.38-.23-.11-.54-.05-.75.08-.12.07-.24.18-.25.33-.04.33.41.37.64.36.5-.02,1.02-.09,1.47-.32.22-.11.46-.27.59-.49.06-.1.1-.22.08-.33-.03-.16-.18-.24-.33-.28-.51-.14-1.12-.03-1.59.18-.24.1-.47.25-.67.42-.17.15-.4.39-.29.63.13.28.5.32.77.28.33-.06.61-.22.87-.44.19-.16.35-.38.32-.64-.04-.28-.33-.38-.58-.38-.57,0-1.16.25-1.58.64-.18.16-.36.37-.36.62,0,.37.47.38.74.34.61-.1,1.2-.37,1.62-.83.07-.07.13-.15.08-.24s-.18-.12-.28-.12c-.45-.01-.98.18-1.2.59-.11.19.09.29.26.29.2,0,.53-.07.64-.27h0Z"/><path class="cls-3" d="M107.03,39.26s.1-.05.15-.07c.03-.01.06-.03.09-.04.07-.03-.08.02-.01,0,.03,0,.05-.01.08-.02.07-.02-.09.01-.01,0s-.08,0-.02,0c.03,0,.02,0-.03,0,.02,0,.03,0,.05.01.01,0,.07.03.03,0s.01,0,.02.02c0,0,.06.05.03.02s.01.02.02.02c.01.02.03.07.01.01,0,.02.01.04.02.06,0,.02,0,.06,0,0,0,0-.01.09,0,.05.01-.05-.02.04-.02.04,0,.02-.04.05,0,0-.02.02-.11.11-.03.04-.04.03-.07.05-.11.08-.07.05,0-.01.02,0-.01,0-.07.03-.08.04-.05.02-.15.04,0,0-.04,0-.07.02-.11.03-.02,0-.04,0-.06.01-.08.02.04,0,.05,0-.04,0-.1.01-.14.01-.08,0,.03,0,.04,0,0,0-.04,0-.05,0,0,0-.05,0-.05,0,.03-.02.09.02.03,0-.02,0-.03-.01-.05-.02-.08-.02.05.04.01,0-.01,0-.03-.02-.04-.03-.04-.02-.02-.02,0,0-.02-.03-.04-.05-.06-.08-.04-.06,0,.04,0-.01,0-.02-.01-.04-.02-.06,0,0,0-.07,0-.04s0-.03,0-.04c0-.02,0-.04.01-.07,0-.02,0-.02,0,0,0-.02.01-.03.02-.05,0-.02.02-.04.03-.06,0-.01.05-.07.02-.03s.02-.02.02-.02c.02-.02.08-.06,0-.01.02-.02.14-.11.05-.04.04-.03.1-.05.15-.07.03-.01.06-.03.09-.03-.01,0-.11.04-.02,0,.05-.02.1-.03.15-.05.03,0,.05-.01.08-.02h.02s.03-.01-.03,0c0,0,.07,0,.08,0-.05,0-.06,0-.02,0,.03,0,.03,0,0,0,0,0,.09.04,0,0,.02.01.04.02.06.03.01,0,.04.04,0,0,.01.02.03.03.04.05.04.05.01.02,0,0,0,.02.01.04.02.06,0-.04,0,0,0,0,0,.04,0,.04,0,.02,0-.02,0-.01-.01.02,0-.02.04-.04,0,0-.06.06,0,0,0,0-.04.03-.08.06-.12.08-.05.03-.1.06-.15.09-.06.04.07-.03,0,0-.03.01-.06.03-.09.05-.1.05-.2.09-.3.14-.02,0-.1.03-.03.01s-.01,0-.03,0c-.06.02-.12.04-.19.05-.05.01-.1.03-.15.04-.02,0-.1.02-.03,0,.08-.02-.04,0-.05,0-.05,0-.1.01-.15.02-.01,0-.06,0-.07,0,.02-.01.1,0,0,0-.06,0,.09.03,0,0-.02,0-.06-.03,0,0-.02,0-.04-.04,0,0-.01-.02-.03-.03-.04-.05.03.06,0-.08,0,0,0-.02,0-.04,0-.06,0-.02.03-.09,0-.03.02-.04.04-.08.06-.11,0,.01-.05.06,0,0,.01-.02.03-.03.04-.05,0,0,.04-.04.05-.05-.05.02-.04.03-.01,0,.05-.04.1-.07.15-.11.02-.01.04-.03.07-.04.08-.05,0,0,0,0,.04-.03.09-.05.14-.07.05-.03.11-.05.16-.07.02-.01.05-.02.07-.03.02,0,.04-.01.05-.02l-.05.02s.14-.05.17-.05c.05-.01.1-.03.15-.04.03,0,.05-.01.08-.02.07-.02-.09.01-.02,0,.06,0,.11-.01.17-.02.06-.01-.09,0-.03,0,.01,0,.07,0,.08,0,0-.01-.08-.02-.02,0,.08.02-.06-.03,0,0-.06-.03-.02-.03,0,0,.02.03.02.03.01.01-.01-.02,0-.01,0,.02,0-.02,0-.05,0,.01v.03s0-.03-.01.01c-.01.02-.02.04-.03.06.03-.05,0,0-.02.02-.03.04-.07.08-.11.12,0,0-.09.08-.04.04.04-.04-.03.03-.04.03-.05.04-.1.07-.15.11-.02.01-.04.03-.06.04-.03.02-.1.08-.02.01-.04.03-.1.05-.15.07-.03.01-.05.02-.08.04-.02,0-.11.05-.04.02.07-.03,0,0-.02,0-.03,0-.06.02-.09.03-.05.01-.13.05-.18.04.07.01.07-.01.02,0-.04,0-.07,0-.11.01-.05,0-.13.02-.18.01.01,0,.1,0,.02,0-.04,0-.07,0-.11,0l.28.37s.04-.08.07-.12c.01-.02.02-.04.04-.06-.03.04-.02.04,0,0,.03-.03.06-.07.09-.1.02-.02.13-.11.04-.04.04-.03.07-.06.11-.08.02-.01.04-.03.06-.04-.06.03-.06.04-.02.01.04-.02.08-.04.12-.06.05-.02.04-.02-.03.01.02,0,.04-.01.07-.02.17-.05.46-.21.4-.43s-.39-.22-.56-.17c-.55.15-1.04.51-1.31,1.02-.11.2.09.36.28.37.69.04,1.38-.14,1.96-.53.25-.17.54-.4.68-.68.08-.18.11-.36,0-.54-.08-.14-.23-.22-.38-.26-.34-.09-.71-.02-1.05.07-.36.09-.69.24-1,.42-.27.16-.55.37-.69.66s-.1.63.21.79c.34.18.77.1,1.13.03.33-.07.65-.18.95-.33s.67-.34.86-.64c.2-.31.05-.68-.26-.85-.37-.2-.81-.12-1.19,0-.34.12-.7.26-.94.55-.23.27-.33.62-.16.94.13.25.41.35.67.39.34.05.7-.03,1.02-.16s.67-.35.81-.67c.17-.38-.06-.72-.43-.86-.44-.17-.92,0-1.31.2-.16.08-.38.27-.24.46s.48.14.65.05h0Z"/><path class="cls-3" d="M115.05,36.23c.39-.17.82-.26,1.25-.26.08,0,.15.01.23.02.07,0,.05,0,.01,0,.04.02.02.03.02.02,0,0,.01-.1.01-.1.01.04-.05.05-.01.02-.09.07.04,0-.07.04-.06.03-.06.03-.01,0l-.07.02c-.47.12-.93.25-1.41.31-.11.02-.23.03-.34.04-.03,0-.3,0-.31.02.03-.05.14.07.13.07v-.04s0,0,0,0v-.05s.01.02,0,.02c-.03.03.02-.01.03-.02.13-.07.41-.14.61-.19.22-.06.44-.1.67-.13.43-.06.91-.11,1.34-.04.02,0,.11.04.11.04h.02s-.02-.01-.02-.03v-.03c.03-.09.09-.15.17-.17,0,.03-.28.08-.32.09-.13.04-.27.07-.4.11-.45.11-.9.21-1.36.28-.14.02-.27.04-.41.06-.07,0-.14.02-.21.02-.04,0-.16,0-.19.02-.08.06.24.04.21.13-.03.07-.1.08-.02.04.09-.04.18-.07.28-.1.48-.15.98-.22,1.49-.19l-.17-.62c-.22.2-.46.34-.72.41-.16.05-.23.06-.39.07-.07,0-.15,0-.2,0-.02,0-.03,0-.03,0,0,0,.02,0,.02,0,.05.03.07.07.07.14,0-.25-.23-.36-.46-.35-.2.01-.52.16-.53.41,0,.67.94.59,1.38.51.55-.09,1.08-.34,1.5-.71.23-.21.2-.59-.17-.62-.73-.04-1.47.03-2.16.27-.35.12-.77.28-.88.68-.11.44.28.69.68.67.73-.03,1.49-.2,2.2-.36.36-.08.72-.17,1.06-.3s.66-.49.43-.85c-.16-.26-.51-.37-.8-.39-.37-.03-.74-.03-1.11,0s-.74.08-1.1.16-.73.17-1.05.33-.62.47-.57.87.46.52.81.52c.72-.01,1.48-.18,2.17-.38.37-.11.77-.25.97-.6s-.02-.73-.39-.85-.82-.09-1.2-.04c-.44.06-.85.18-1.25.36-.19.08-.36.33-.22.53.15.21.46.18.66.09h0Z"/><path class="cls-3" d="M125.98,34.85s.05-.09.08-.13c0,0,.04-.05.02-.02-.02.03.02-.03.03-.04.03-.04.06-.07.09-.1.05-.06.02-.02,0,0,.02-.02.05-.04.08-.06.04-.03-.02.01-.02.01.08-.04,0,0-.02,0,.08-.03-.03,0-.04,0,.02,0,.09,0-.03,0,.01,0,.06.01,0,0-.06-.01.02,0,.02.01.02.02,0,0-.02-.01.03.02.05.03.08.05-.05-.04,0,.02.02.04.02.03,0,0,0-.01,0,.02.01.04.02.06-.02-.06-.02.07,0,.01,0,0-.01.04-.02.04-.01.02-.01.02.01-.02l-.02.02s.08-.06,0,0c0,0-.06.04,0,0s0,0-.02.01c-.02.01-.04.02-.07.03-.05.02.04-.02.04-.01-.01,0-.05.02-.07.02-.07.02-.14.04-.21.05-.06.01-.12.03-.17.04-.03,0-.07.01-.1.02.01,0,.06-.01,0,0-.13.02-.27.04-.41.05-.13.01-.25.02-.38.03-.06,0-.12,0-.18,0-.08,0,.06,0-.01,0-.04,0-.07-.02-.02,0,.02,0,.04.02.05.02,0,0,.04.04,0,.01-.02-.02,0,.03,0,0,0-.02,0-.03,0-.05-.02.07.06-.08.01-.01.01-.02.03-.04.05-.06.03-.03.03-.02,0,0,.02-.01.14-.09.07-.05.05-.03.1-.05.14-.08s.1-.05.15-.07c.03-.01.06-.02.09-.03-.07.03,0,0,.03,0,.05-.02.1-.03.16-.04.03,0,.06-.01.09-.02.02,0,.1-.02,0,0,.05,0,.11-.02.16-.02.03,0,.06,0,.09,0,.01,0,.03,0,.04,0,.04,0,.02,0-.04,0,.02-.01.09,0,.12,0,.01,0,.09.02.03,0-.05-.01,0,0,.01,0,.02,0,.13.06.06.02.04.02.07.04.1.07-.06-.05.02.03.03.05-.04-.07,0,.05,0,.02,0-.04,0,.03,0,.04,0,.02,0,.03,0,.05.02-.07,0,0,0,0,0,0,.04-.05-.01.01-.01.01-.02.03-.04.04.06-.06.02-.02,0,0-.02.01-.04.03-.06.04.02,0,.09-.04,0,0-.02,0-.03.02-.05.02-.02.01-.09.02-.02.01s0,0-.02,0c-.05.02-.09.03-.14.04-.11.03-.22.06-.34.09-.03,0-.06.01-.1.02.02,0,.09-.01-.02,0-.07,0-.13.02-.2.03-.12.01-.25.02-.37.03-.02,0-.05,0-.07,0,.08,0,0,0-.01,0-.03,0-.06,0-.08,0h-.04s.04,0,.01,0c0,0-.02-.02,0,0,.03.03,0,0-.01-.01,0,0-.04-.05-.01,0,0-.01-.01-.03-.02-.05,0,0-.02-.07-.01-.04s0-.03,0-.04c0-.02,0-.03,0-.05,0-.09-.01.01,0-.03,0-.02.02-.04.03-.06.03-.05-.04.04,0,0,.04-.04,0,0-.01,0,.02-.02.04-.03.06-.05s.07-.03,0,0c.02,0,.04-.02.06-.03.01,0,.1-.04.03-.02-.07.03.04-.01.05-.02.06-.02.12-.03.18-.05.03,0,.06-.01.1-.02-.07.01,0,0,.04,0,.07,0,.15-.02.22-.02.02,0,.05,0,.07,0,.08,0-.09-.02,0,0,.08.02,0,0-.01,0,.03,0,.05.02.08.02.04,0,0,0-.02-.01.02.01.04.03.07.04.04.03-.04-.04,0,0,.04.05,0,.03,0,0,0,.06.01-.02,0,0,0,.01-.02.03,0,0,0,0,.04-.05.04-.04,0,.01-.08.05-.09.06-.02.02-.05.03-.07.05-.06.04.1-.05-.03.01-.05.03-.11.05-.16.07-.02,0-.09.04,0,0-.03.01-.07.02-.1.03-.06.02-.11.03-.17.04-.07.02.08,0,0,0-.04,0-.07,0-.11.01-.06,0-.12,0-.17,0,.08,0,0,0,0,0-.04,0-.09,0-.13-.01l.23.47s.07-.08.11-.12c.06-.06-.04.02.04-.03.03-.02.07-.05.1-.07.05-.03.05-.03,0,0,.02-.01.04-.02.06-.03.04-.02.09-.04.13-.06-.08.03-.01,0,.03,0s.12-.02.03-.01c.05,0,.11-.01.17-.02.2-.01.51-.15.54-.38s-.26-.31-.44-.3c-.59.03-1.18.31-1.57.77-.19.22-.03.44.23.47.37.04.76,0,1.12-.1s.77-.28,1.03-.57.19-.63-.14-.81-.67-.17-1.02-.12c-.4.06-.82.15-1.16.39-.29.2-.51.53-.44.9s.46.54.81.55c.41.01.81-.03,1.21-.11.37-.07.75-.18,1.07-.39.28-.18.53-.48.46-.83-.06-.29-.34-.47-.61-.54-.36-.1-.73-.06-1.09.01-.39.08-.76.23-1.1.43-.28.17-.59.48-.54.83.06.43.6.43.93.42.4,0,.8-.06,1.2-.14s.81-.18,1.11-.45c.27-.24.38-.64.1-.92-.32-.31-.81-.33-1.2-.17s-.63.47-.84.82c-.12.2.11.37.29.38.24.02.5-.08.63-.29h0Z"/><path class="cls-3" d="M132.81,33.23s.01-.03,0-.01c.03-.03.02-.03,0,0-.17.11-.35.15-.54.12.02,0,.03.01.05.02l-.05-.18c-.06.09-.12.18-.19.26-.02.02-.04.04-.05.06-.02.02-.01.02,0,0l-.02.02-.03.02s.05-.03.02-.01c-.03.02-.02.01.04-.02l.18-.05h.07c.06,0,.07,0,.04,0-.04,0,.07.03,0,0,0,0-.06-.03-.04-.02.02.01-.03-.03-.03-.02-.05-.04-.1-.09-.09-.18,0,.02,0-.03,0-.02,0,0,.03-.07.01-.04.01-.02.03-.03.04-.04-.06.06.07-.04-.04.03.05-.03,0,0-.03.01.01,0,.09-.03.09-.03-.02.02-.09.02-.02,0,0,0,.12-.02.05-.01s.03,0,.05,0c0,0,.12-.02.05,0s.04,0,.05,0c.03,0,.06,0,.1,0,.03,0,.09,0,.03,0,.03,0,.06,0,.1,0s.06,0,.1.01c0,0,.1.02.07,0l-.05-.18c-.05.05-.09.11-.14.16-.03.03-.06.05-.08.08.04-.04-.03.02-.03.03-.05.04-.1.08-.16.12-.03.02-.08.05-.02.02-.03.02-.06.03-.09.05-.03.02-.07.03-.1.05-.03.01-.02,0,.04-.01-.02,0-.03.01-.05.02-.04.01-.07.03-.11.04-.09.04.11-.03,0,0-.03,0-.06.02-.1.03-.02,0-.03,0-.05.01-.04,0-.02,0,.05-.01,0,0-.08.01-.1.02-.02,0-.04,0-.07,0,.06,0,.07,0,.04,0-.07,0-.14,0-.21,0,.07,0,.01,0-.02,0-.06,0,0,0,0,0,0,0-.02-.04-.02-.05,0-.01.01-.04.02-.05,0,.02.03-.04.03-.04.03-.03.03-.03,0,0,.02-.01.03-.02.05-.03.03-.02.06-.04.09-.07.01,0,.12-.08.05-.04.07-.04.13-.08.2-.11.01,0,.13-.06.03-.02-.37.03-.49.05-.34.06h-.04s.03,0,0-.01h.02s.02.03,0,0c0-.02,0-.03.02-.05-.13.17.12.21.24.2s.26-.03.38-.08c.09-.04.2-.08.27-.16.12-.15.04-.27-.12-.32-.26-.09-.57-.03-.81.08-.22.09-.42.2-.62.33-.16.1-.33.22-.41.4-.21.44.57.41.8.39.45-.04.87-.16,1.28-.35.36-.17.7-.42.96-.73.06-.07.06-.16-.05-.18-.48-.1-.96-.08-1.43.04-.24.06-.49.15-.7.29-.15.1-.28.25-.28.44,0,.13.11.24.21.3.2.11.43.12.64.08.27-.04.54-.15.75-.33.14-.12.24-.26.35-.41.06-.09.05-.14-.05-.18-.23-.1-.55-.03-.77.05-.19.07-.39.18-.47.38-.07.18.32.15.4.13.13-.02.26-.06.37-.12.07-.04.16-.09.19-.17h0Z"/><path class="cls-3" d="M113.69,18.15c-.09.02.08-.01.08-.01.04,0,.09,0,.13,0,.1,0-.1-.01.06,0,.05,0,.11.01.16.02.07.01.12.03.2.06.03.01.07.03.1.04-.08-.04.11.05.04.02-.02,0,0-.02,0,.02,0-.05,0-.06.03-.1,0,0,.12-.08.07-.05-.04.02-.1.02,0,0-.03,0-.14.01-.02,0-.03,0-.06,0-.09,0-.12,0-.23,0-.35,0-.15,0-.37-.03-.54-.06-.05,0-.1-.02-.14-.02h-.06s.05,0,.02,0h-.02s-.05-.02,0,0c-.04-.03-.04-.03,0,0,.02.02.02.04,0,.07,0,.05-.02.04-.04.08l.04-.03s-.04.03.02,0c.08-.04.16-.08.24-.12s.17-.08.25-.11c.16-.07-.04.01.05-.02.06-.02.12-.04.18-.06.04-.01.09-.02.13-.03.02,0,.13-.02.05-.01.09-.01.18-.02.27-.02-.07,0,.1,0,.09,0,.04,0,.07.01.11.02.12.02-.06-.03.05.02.04.02.08.03.12.05.11.05-.04-.04.06.03.03.02.06.04.09.06.06.04.11.08.14.12.05.05.09.11.13.17.05.07.05.08.08.17.04.13.05.2.02.34.02-.06-.03.08-.03.07,0,0,.04-.03.03-.03l.11-.05c.06,0,.06,0,0,0-.05,0-.1,0-.15,0-.21,0-.41,0-.62,0-.09,0-.19,0-.28,0s.11.01-.05,0c-.06,0-.12,0-.17-.02-.03,0-.09-.02-.15-.06-.05-.04.04.06-.04-.03-.02-.02-.03-.04-.05-.07,0,.02,0,.02,0,0-.01-.03-.02-.06-.03-.1,0,.03,0-.03,0-.02v-.02s0,.04-.03.05c-.05.03-.05.03,0,0-.05.02-.06.02-.03.01.03,0,.12-.02.01,0,.06,0,.11-.01.17-.01.09,0-.1-.01.05,0,.06,0,.12.01.17.02.14.03.32.1.47.19l.28-.63c-.41.14-.74.19-1.17.13l.16.59s.05-.04.08-.06c.12-.09-.03.02.04-.02.03-.02.06-.03.09-.04.02,0,.12-.05.04-.02.06-.02.13-.04.19-.05-.07.02,0,0,.04,0,.04,0,.08,0,.12,0,.22,0,.51-.16.53-.4.02-.25-.25-.34-.45-.33-.48.02-.94.19-1.32.48-.27.2-.18.55.16.59.56.07,1.14.02,1.68-.17.15-.05.3-.13.37-.28.05-.12.02-.27-.09-.35-.51-.33-1.18-.48-1.78-.32-.3.08-.6.26-.72.56-.1.25-.02.55.16.74.44.48,1.2.38,1.78.38.33,0,.68.03.97-.16.27-.16.43-.46.44-.77.02-.5-.29-.96-.71-1.22-.53-.33-1.18-.33-1.78-.17-.31.08-.6.21-.89.35-.27.14-.63.32-.67.65-.08.66,1.03.69,1.45.7.37.01.74.02,1.08-.12.27-.12.59-.39.51-.72s-.47-.48-.77-.55c-.39-.1-.78-.1-1.17-.02-.2.04-.45.25-.39.47.07.25.38.25.57.21h0Z"/><path class="cls-3" d="M122.74,18.83s.06-.04,0,0c.02-.01.04-.01.06-.02.05-.02-.02,0-.03,0-.02,0-.04,0-.07,0-.02,0,.03.02,0,0,.01.01.06.07.05.05.02.03.02.06.03.09,0,.02,0,0,0,0,0,.01-.01.04,0,.05-.01-.05.27-.17.33-.18.02,0,.11,0,0,0-.03,0-.06,0-.09,0-.41,0-.75-.04-1.16-.15-.01,0-.06-.02,0,0-.02,0-.03-.01-.05-.02s-.08-.04-.06-.03c-.05-.04-.09-.08-.09-.15,0,0,.01-.05.02-.07.01-.03,0,0,0,0h0s.01-.03-.01,0c0-.01.05-.03,0,0-.02.01-.05.03-.07.04-.14.06-.1.03-.18.04.02,0,.06,0,.02,0,.05,0,.1.02.14.03.02,0,.04.01.06.02,0,0,.06.02.02,0,.08.03.16.05.24.09.14.06.29.14.41.22.32.22.59.51.79.84l.64-.45c.08,0-.07,0-.09-.01-.05,0-.1-.02-.16-.03-.1-.02-.13-.03-.23-.07-.18-.07-.35-.16-.5-.28-.17-.13-.45-.08-.64,0-.09.04-.43.24-.26.37.44.34.94.52,1.49.56.2.01.81-.16.64-.45-.26-.43-.63-.77-1.07-1.01-.56-.31-1.32-.49-1.89-.11-.22.14-.45.41-.32.69.12.25.42.32.66.37.31.07.63.11.95.13.38.02.8.04,1.14-.16.14-.08.27-.21.28-.37,0-.13-.04-.25-.14-.34-.33-.3-.89-.13-1.25,0-.12.04-.4.22-.26.37s.48.06.64,0h0Z"/><path class="cls-3" d="M104.54,21.02c.05-.06.12-.11.17-.17-.02.03-.07.06-.01.01.01-.01.03-.02.04-.03.03-.02.06-.05.1-.07.02-.01.04-.02.06-.04.01,0,.07-.04,0,0-.07.04,0,0,.02,0,.02,0,.03-.02.05-.02.04-.02.08-.04.12-.05.06-.03-.04.01-.05.02.02,0,.04-.01.06-.02.04-.01.08-.02.11-.03.02,0,.04,0,.05-.01-.01,0-.15.02-.06.01.02,0,.07,0-.01,0-.09,0-.02,0,0,0,.01,0,.03,0,.04,0,.07,0-.09-.02-.04,0,.03,0,.06.02.09.02.05.01-.03-.01-.04-.02.01,0,.03.01.04.02,0,0,.02.01.03.02.03.02-.06-.06-.02-.02.02.02.03.04.05.07l-.04-.07s.02.05.02.08v-.08s-.01.06,0,.07c.02-.05.02-.06.01-.03,0,0,0,.02-.01.03.04-.05.05-.06.02-.03.06-.05.07-.06.05-.04-.08.06.1-.04.02,0-.02,0-.04.02-.06.03.09-.03.11-.04.06-.02-.02,0-.03,0-.05.01-.03,0-.06.02-.09.02-.02,0-.15.03-.05.01s-.04,0-.05,0c-.03,0-.06,0-.09.01-.04,0-.08,0-.12,0h-.03c-.05,0-.04,0,.03,0,0,0-.07,0-.09,0-.04,0-.08,0-.12,0-.03,0-.06,0-.09,0-.02,0-.16-.03-.04,0l.17.33c.02-.06.05-.11.08-.16,0-.01.03-.03.03-.04,0,.01-.06.07-.02.03.02-.02.04-.05.06-.07.02-.02.05-.05.07-.07,0,0-.08.06-.04.03.01,0,.02-.02.03-.03.03-.02.06-.03.08-.05.04-.03-.1.05-.05.03.02,0,.03-.02.05-.02,0,0,.08-.03.08-.03,0,0-.14.04-.05.02.01,0,.03,0,.04-.01.05-.01.15-.01-.01,0,.03,0,.06,0,.09-.01.02,0,.09,0,0,0s-.03,0,0,0c.03,0,.06,0,.1,0,.06,0-.04,0-.05,0,.01,0,.03,0,.04,0,.04,0,.07.02.1.03l-.11-.41c-.06.08-.13.16-.21.23s.07-.05,0,0c-.02.01-.04.03-.06.05-.04.03-.09.05-.13.08.1-.08.06-.03.02-.01-.02.01-.05.02-.07.03s-.05.02-.07.03c-.09.04.12-.04.03-.01-.05.01-.1.03-.15.04-.02,0-.03,0-.05.01.09-.02.11-.02.07-.01-.03,0-.06,0-.09.01-.12.01-.26.06-.36.13-.07.05-.17.14-.18.23-.02.23.26.29.43.27.61-.06,1.23-.36,1.61-.85.05-.07.12-.15.09-.24s-.11-.14-.2-.17c-.42-.15-.89-.08-1.29.09-.35.16-.69.43-.83.8-.03.07-.05.13,0,.2.03.06.1.12.18.13.4.07.8.08,1.21,0,.19-.04.39-.08.57-.17s.37-.21.44-.4c.06-.15.06-.32-.05-.45-.09-.11-.24-.18-.37-.22-.37-.11-.76-.02-1.11.11s-.69.36-.94.65c-.06.06-.11.15-.09.24s.12.15.2.17c.22.06.52,0,.68-.18h0Z"/><path class="cls-3" d="M128,38.52h-.23c.11.14.22.28.34.41-.11.1.03-.02.03-.02-.07.03-.07.04-.03.02.04-.02.04-.02,0,0-.04.01-.05.02,0,0,.05-.01.04,0-.04,0,.02,0,.04,0,.06,0-.07,0-.08,0-.03,0l-.02-.54s.1-.03.04-.02c-.02,0-.03.01-.05.01-.03,0-.07,0-.1.02,0,0,.1-.02.05,0-.02,0-.03,0-.05,0-.04,0-.08,0-.12.01-.05,0,.03,0,.04,0,0,0-.05,0-.05,0-.02,0-.12-.01-.05,0,.06.01.01,0,0,0,.01,0,.04.02.05.02.02,0,.02,0,0,0,.01,0,.03.05.01,0,0,0,.02.05,0,.02,0,0,0-.03,0-.03-.01.07.02,0,.02,0,0,0-.05.05-.02.03,0,0,.03-.02.03-.03,0,0-.07.05-.03.03.01,0,.07-.04,0,0-.07.04.03,0,.05-.02.03-.01.06-.02.09-.04.05-.02-.05.02-.05.02.02,0,.03-.01.05-.02.04-.01.08-.02.11-.03.03,0,.07,0,.1-.02,0,0-.1.02-.05,0,.02,0,.03,0,.05,0,.07-.01.15-.02.22-.02.05,0-.04,0-.04,0,.02,0,.05.01,0,0-.04-.01-.08-.03-.11-.05,0,0,.04.03,0,0-.02-.02,0-.02,0,0,0,0,0-.06,0-.03,0,0,0,.03,0,.03,0,0,.04-.06,0-.01,0,0-.02.02-.02.03-.01.04.01-.02.02-.02,0,0-.05.05-.06.06,0,0,.05-.07.03-.03,0,0-.03.01-.03.02,0,0,.08-.04.03-.02-.02,0-.04.02-.06.03-.06.03-.12.06-.18.08-.02,0-.12.05-.05.02s-.04.01-.06.02c-.06.02-.13.03-.19.05-.09.02.09-.01,0,0-.04,0-.08.01-.12.02-.03,0-.07,0-.1,0-.01,0-.03,0-.04,0,0,0,.1,0,.05,0-.02,0-.11,0-.04,0,.06,0,.01,0,0,0,.03,0,.05.03.02,0-.02-.01-.02-.03,0,0,.02.04,0,0,0-.02-.01-.03,0,.02,0,.02,0-.01,0-.02-.01-.03,0-.01-.01-.08-.01-.04,0,.04,0-.04,0-.05,0-.01,0-.02,0-.03,0-.03,0,.02,0,.02,0,0,.04-.06.04-.06,0,0-.05.06-.02.03,0,0,.02-.02.03-.03,0,0-.08.06-.04.03.05-.04-.08.04-.03.02.05-.02-.06.02-.06.02.02,0,.07-.01,0,0-.08.02.02,0,.04,0,.05,0-.05,0-.05,0,.01,0,.03,0,.05,0,.04,0,.07,0,.11,0,.08,0-.07-.02,0,0,.03,0,.05.01.08.02.06.02-.05-.03,0,0,0,0,.02.02.03.02.04.01-.05-.02,0,0,0,0,.02.02.02.03,0,0-.01-.05,0-.02,0,.01,0,.02.01.04,0,.01,0,.04,0,0,0-.04-.03.06,0,.01.03-.04,0,0,0,0-.04.04.02-.01.01-.02,0,0-.03.03-.03.03-.03.03.03-.02.03-.03-.02,0-.06.03-.07.05,0,0,.09-.04.05-.03-.01,0-.02.01-.04.02-.02,0-.03.01-.05.02-.06.03.09-.03.03,0-.04.01-.08.02-.12.03-.02,0-.03,0-.05.01-.01,0-.09.02-.02,0s.01,0,0,0c-.02,0-.05,0-.07,0-.04,0-.08,0-.12.01-.05,0,.06,0,.06,0,0,0-.04,0-.05,0,0,0,.09.02.05,0-.05-.01.07.03.02.01,0,0-.03-.01-.03-.02,0,.02.06.03.02,0,0,0,.02.05.01.01,0-.04.01.04,0,0,0,0,0-.03,0-.04,0,.03-.02.04,0,.01,0,0-.05.05-.02.02.01,0,.06-.05,0-.01-.03.02-.05.04-.08.05.07-.03-.05,0-.05.01,0-.01.08-.02.1-.03.2-.05.4-.1.57-.22.07-.05.16-.13.18-.23.01-.08-.03-.16-.11-.2-.2-.11-.51-.05-.69.08-.08.06.08-.03.02,0s.11-.03.04-.01c-.04.01-.09.02-.13.03-.12.03-.25.06-.36.12-.23.12-.52.34-.47.64.04.25.32.34.54.37.25.02.52-.03.75-.09.26-.07.52-.17.73-.34.17-.14.35-.36.27-.6-.07-.21-.29-.32-.49-.37-.25-.06-.51-.07-.77-.02-.29.05-.6.19-.76.45-.09.14-.15.35-.08.51.21.5.96.36,1.37.27.23-.05.46-.13.68-.23.23-.11.46-.24.6-.45.13-.19.13-.42-.07-.56-.14-.1-.33-.09-.5-.09-.11,0-.21.01-.32.03-.29.05-.59.13-.85.26-.23.11-.52.32-.55.6-.03.34.36.44.62.44.34,0,.67-.06.99-.17.13-.05.29-.18.28-.32s-.18-.21-.3-.21c-.41-.02-.81.12-1.12.39-.09.08-.13.21-.05.3.09.11.26.11.39.1h.23c.12,0,.27-.07.36-.13.07-.05.17-.14.18-.23.02-.24-.26-.26-.43-.25h0Z"/><path class="cls-3" d="M132.68,36.52c.04-.05.08-.1.12-.15.03-.03.02-.02-.01.01.01-.01.02-.02.03-.03.02-.02.05-.04.07-.07.05-.04.1-.08.15-.12-.06.04-.07.05-.03.02.01,0,.03-.02.04-.03.02-.01.05-.03.07-.04s.05-.03.07-.04c-.13.08-.04.02,0,0,.03-.01.06-.02.09-.04.12-.05-.1.03-.01,0,.03,0,.06-.02.09-.03.13-.03-.1.01-.02,0,.05,0,.03,0-.05,0-.04,0-.08,0-.11-.02-.06-.03-.02-.01,0,.02l-.03-.06s.01.04.01.06v-.07s-.01.05-.01.06c.02-.04.03-.05.02-.03,0,0,0,.02-.01.02,0,.01-.01.02-.02.03-.02.03-.02.02.02-.02-.01,0-.04.03-.05.04-.03.03-.02.02.04-.03-.01,0-.02.01-.03.02,0,0,.14-.06.03-.02-.06.03-.13.05-.19.08-.13.05-.26.1-.38.16-.06.03-.13.05-.19.08h-.03s-.03.02.05,0c.14-.06.26-.06.37.01,0,0-.02-.02-.02-.03l.03.06c-.04-.08-.05-.17-.05-.26v.07c0-.07,0-.13.02-.19,0-.03.01-.06.02-.09,0-.01.01-.03.02-.04.02-.05-.04.05,0,0,0-.01.02-.02.02-.03.03-.05-.02.02-.03.03.04-.04-.08.05-.1.06-.11.05-.23.08-.35.08.03,0,.02,0-.02,0-.03,0-.06,0-.09-.02.01,0,.05.03,0,0-.04-.03,0,0,0,0,0,.01.02.02.03.03l-.03-.06s.04.1.04.15v-.07s0,.07-.01.11c0,.02-.01.04-.02.06v.02s-.02.02,0-.02c0,0-.03.04-.03.04-.03.05-.02,0,.02-.02-.02,0-.04.03-.05.04-.01,0-.02.02-.04.03.05-.04.07-.05.04-.03-.2.13-.42.25-.55.46l.93-.12s-.01-.08-.01-.12v.07c0-.05,0-.11.03-.16,0-.01,0-.03.01-.04.01-.04,0,0,0,.01.02-.02.03-.06.05-.08,0-.01.02-.02.03-.03.02-.04-.05.05-.02.02.02-.01.09-.07.03-.03s-.02,0,0,0c.05-.02-.11.05-.06.03.02,0,.07-.03-.02,0-.09.03-.02,0,0,0,.11-.02.24-.09.32-.16.05-.04.12-.13.1-.2-.07-.19-.4-.13-.54-.1-.47.1-.97.51-.86,1.04.03.15.31.14.41.13.18-.03.41-.09.52-.25.01-.02.06-.07.02-.04-.04.04.02-.02.03-.03.02-.01.05-.05.07-.05,0,0-.08.05-.04.03.02,0,.03-.02.05-.03.12-.08.24-.15.34-.25.16-.15.29-.4.22-.62-.12-.38-.66-.31-.94-.2s-.45.32-.5.61c-.04.23-.03.52.21.63.16.07.37.05.53,0,.1-.03.2-.07.29-.1.14-.06.27-.11.41-.17.3-.12.63-.23.83-.5.06-.09.13-.22.08-.33-.09-.19-.33-.22-.52-.21-.38.02-.77.17-1.09.37-.27.16-.52.38-.71.64-.13.18.11.27.26.27.22,0,.5-.07.64-.26h0Z"/></g></g></g></svg>